<?xml version="1.0" encoding="UTF-8"?>
<svg version="1.1" xmlns="http://www.w3.org/2000/svg" width="200" height="200">
<path d="M0 0 C66 0 132 0 200 0 C200 66 200 132 200 200 C134 200 68 200 0 200 C0 134 0 68 0 0 Z " fill="#FEFEFE" transform="translate(0,0)"/>
<path d="M0 0 C4.66460134 1.60345671 9.11941597 3.94449342 13 7 C13.495 8.485 13.495 8.485 14 10 C10.2089881 8.55049545 6.6125362 6.84827434 3 5 C3 5.66 3 6.32 3 7 C3.99 7.495 3.99 7.495 5 8 C4.67 9.65 4.34 11.3 4 13 C5.546875 12.443125 5.546875 12.443125 7.125 11.875 C11.44494772 10.89952793 13.1651149 10.82108801 17 13 C18.8125 16.5625 18.8125 16.5625 20 20 C20.33 20.33 20.66 20.66 21 21 C21.495 22.485 21.495 22.485 22 24 C25.56086658 25.18695553 28.97331024 25.35095418 32.6875 25.5625 C33.38939453 25.60568359 34.09128906 25.64886719 34.81445312 25.69335938 C36.54275206 25.7991736 38.2713511 25.90006581 40 26 C40 27.65 40 29.3 40 31 C38.02 31 36.04 31 34 31 C33.97315321 33.64590014 33.95323643 36.29153096 33.9375 38.9375 C33.92493164 40.06961914 33.92493164 40.06961914 33.91210938 41.22460938 C33.90347559 43.14994313 33.94775667 45.07535581 34 47 C34.33 47.33 34.66 47.66 35 48 C35.350625 48.515625 35.70125 49.03125 36.0625 49.5625 C39.22978466 51.91242088 42.1254766 51.24600149 46 51 C46.66 50.67 47.32 50.34 48 50 C48.66 50.66 49.32 51.32 50 52 C50.99 52 51.98 52 53 52 C53 53.65 53 55.3 53 57 C51.02 56.505 51.02 56.505 49 56 C49 56.33 49 56.66 49 57 C45.04 57 41.08 57 37 57 C37 55.35 37 53.7 37 52 C36.34 52 35.68 52 35 52 C35 53.65 35 55.3 35 57 C30.70845978 57.0867562 26.41714332 57.1403089 22.125 57.1875 C20.29001953 57.22520508 20.29001953 57.22520508 18.41796875 57.26367188 C16.66806641 57.27817383 16.66806641 57.27817383 14.8828125 57.29296875 C13.26463623 57.31653442 13.26463623 57.31653442 11.61376953 57.34057617 C10.75122559 57.22818604 9.88868164 57.1157959 9 57 C8.34 56.01 7.68 55.02 7 54 C6.67 54.99 6.34 55.98 6 57 C1.33333333 57 -3.33333333 57 -8 57 C-12.42815933 58.24598528 -12.42815933 58.24598528 -16 61 C-16.433125 60.0409375 -16.433125 60.0409375 -16.875 59.0625 C-17.82823451 56.84793921 -17.82823451 56.84793921 -20 56 C-20.33 57.65 -20.66 59.3 -21 61 C-21.33 60.01 -21.66 59.02 -22 58 C-21.505 57.01 -21.505 57.01 -21 56 C-21.928125 56.185625 -22.85625 56.37125 -23.8125 56.5625 C-27 57 -27 57 -30 56 C-30 55.34 -30 54.68 -30 54 C-30.99 54.66 -31.98 55.32 -33 56 C-36.1964086 57.06546953 -38.65747276 57.07427838 -42 57 C-42 55.35 -42 53.7 -42 52 C-38.37 51.34 -34.74 50.68 -31 50 C-30.67 49.01 -30.34 48.02 -30 47 C-35.28044206 47.37279907 -35.28044206 47.37279907 -40.125 49.1875 C-42 50 -42 50 -45.25 49.125 C-46.1575 48.75375 -47.065 48.3825 -48 48 C-48 48.99 -48 49.98 -48 51 C-46.515 51.495 -46.515 51.495 -45 52 C-45 52.66 -45 53.32 -45 54 C-45.66 54 -46.32 54 -47 54 C-47 54.99 -47 55.98 -47 57 C-47.66 57 -48.32 57 -49 57 C-49.495 56.505 -49.495 56.505 -50 56 C-50 56.33 -50 56.66 -50 57 C-50.69867188 57.04898438 -51.39734375 57.09796875 -52.1171875 57.1484375 C-53.02726562 57.22320312 -53.93734375 57.29796875 -54.875 57.375 C-55.77992187 57.44460937 -56.68484375 57.51421875 -57.6171875 57.5859375 C-60.17941903 57.79568132 -60.17941903 57.79568132 -62 60 C-62.33 59.67 -62.66 59.34 -63 59 C-63.99 59.99 -64.98 60.98 -66 62 C-66.66 61.01 -67.32 60.02 -68 59 C-68.66 59 -69.32 59 -70 59 C-70 58.34 -70 57.68 -70 57 C-71.32 57 -72.64 57 -74 57 C-74 55.35 -74 53.7 -74 52 C-73.34 52 -72.68 52 -72 52 C-72 52.99 -72 53.98 -72 55 C-71.34 55 -70.68 55 -70 55 C-69.67 54.01 -69.34 53.02 -69 52 C-66.75 50.6875 -66.75 50.6875 -64 50 C-61.3125 50.875 -61.3125 50.875 -59 52 C-58.34 52 -57.68 52 -57 52 C-56.67 50.35 -56.34 48.7 -56 47 C-58.47266765 47.34444881 -58.47266765 47.34444881 -61 48 C-61.33 48.66 -61.66 49.32 -62 50 C-62 49.34 -62 48.68 -62 48 C-63.98 48.495 -63.98 48.495 -66 49 C-69.43501937 46.09659077 -71.7173182 43.55270149 -72.5390625 39.0390625 C-72.6669078 34.33203088 -72.57467433 31.02620417 -70.25 26.875 C-66.61757779 23.84798149 -63.65309822 22.77551637 -59 22 C-59 22.66 -59 23.32 -59 24 C-58.38511719 23.83242187 -57.77023438 23.66484375 -57.13671875 23.4921875 C-56.32847656 23.28851563 -55.52023438 23.08484375 -54.6875 22.875 C-53.48673828 22.56175781 -53.48673828 22.56175781 -52.26171875 22.2421875 C-50 22 -50 22 -47 24 C-45.03216612 24.02660854 -45.03216612 24.02660854 -43 23.625 C-40.57173291 23.2294868 -38.48116799 23 -36 23 C-34.3125 24.375 -34.3125 24.375 -33 26 C-33 26.66 -33 27.32 -33 28 C-27.67829506 28.29562367 -27.67829506 28.29562367 -23 26 C-20.61322924 25.70547416 -18.21373906 25.5071783 -15.8125 25.375 C-14.54019531 25.30023438 -13.26789063 25.22546875 -11.95703125 25.1484375 C-10.49330078 25.07496094 -10.49330078 25.07496094 -9 25 C-9 24.34 -9 23.68 -9 23 C-9.66 23 -10.32 23 -11 23 C-12.58200941 19.83598119 -12.06168567 16.46125163 -12 13 C-12 12.01 -12 11.02 -12 10 C-9.16255688 5.62195202 -6.10378414 2.45822404 -1 1 C-0.67 0.67 -0.34 0.34 0 0 Z " fill="#FBF0F1" transform="translate(95,66)"/>
<path d="M0 0 C4.66460134 1.60345671 9.11941597 3.94449342 13 7 C13.495 8.485 13.495 8.485 14 10 C10.2089881 8.55049545 6.6125362 6.84827434 3 5 C3 5.66 3 6.32 3 7 C3.66 7.33 4.32 7.66 5 8 C4.67 9.65 4.34 11.3 4 13 C5.546875 12.443125 5.546875 12.443125 7.125 11.875 C11.44494772 10.89952793 13.1651149 10.82108801 17 13 C18.8125 16.5625 18.8125 16.5625 20 20 C20.33 20.33 20.66 20.66 21 21 C21.495 22.485 21.495 22.485 22 24 C25.56086658 25.18695553 28.97331024 25.35095418 32.6875 25.5625 C33.38939453 25.60568359 34.09128906 25.64886719 34.81445312 25.69335938 C36.54275206 25.7991736 38.2713511 25.90006581 40 26 C40 27.65 40 29.3 40 31 C38.02 31 36.04 31 34 31 C33.97315321 33.64590014 33.95323643 36.29153096 33.9375 38.9375 C33.92493164 40.06961914 33.92493164 40.06961914 33.91210938 41.22460938 C33.90347559 43.14994313 33.94775667 45.07535581 34 47 C34.33 47.33 34.66 47.66 35 48 C35.350625 48.515625 35.70125 49.03125 36.0625 49.5625 C39.22978466 51.91242088 42.1254766 51.24600149 46 51 C46.66 50.67 47.32 50.34 48 50 C48.66 50.66 49.32 51.32 50 52 C50.99 52 51.98 52 53 52 C53 53.65 53 55.3 53 57 C51.02 56.505 51.02 56.505 49 56 C49 56.33 49 56.66 49 57 C45.04 57 41.08 57 37 57 C37 55.35 37 53.7 37 52 C36.34 52 35.68 52 35 52 C35 53.65 35 55.3 35 57 C31.37 57 27.74 57 24 57 C24 55.02 24 53.04 24 51 C23.01 51.33 22.02 51.66 21 52 C19.85110867 48.06094403 19.47417305 44.06434042 19 40 C15.7 39.67 12.4 39.34 9 39 C9 39.99 9 40.98 9 42 C12.3 42 15.6 42 19 42 C19 43.32 19 44.64 19 46 C16.56183415 46.0809723 14.12635616 46.14046972 11.6875 46.1875 C10.99720703 46.21263672 10.30691406 46.23777344 9.59570312 46.26367188 C4.50615027 46.33743351 4.50615027 46.33743351 2.03125 44.6875 C0.4812553 42.15114503 0.80679723 39.8980416 1 37 C0.34 37 -0.32 37 -1 37 C-1 40.3 -1 43.6 -1 47 C-3.31 47 -5.62 47 -8 47 C-8 41.72 -8 36.44 -8 31 C-9.32 31 -10.64 31 -12 31 C-12 36.28 -12 41.56 -12 47 C-14.31 47 -16.62 47 -19 47 C-19 41.72 -19 36.44 -19 31 C-19.99 31 -20.98 31 -22 31 C-22 36.28 -22 41.56 -22 47 C-24.31 47 -26.62 47 -29 47 C-29.16225719 44.24763726 -29.2809328 41.50482524 -29.375 38.75 C-29.42527344 37.97269531 -29.47554688 37.19539063 -29.52734375 36.39453125 C-29.58546531 34.12779046 -29.53523255 32.20482184 -29 30 C-24.90884576 26.00863001 -21.20658689 25.46062592 -15.625 25.25 C-14.37976563 25.19328125 -13.13453125 25.1365625 -11.8515625 25.078125 C-10.91054687 25.05234375 -9.96953125 25.0265625 -9 25 C-9 24.34 -9 23.68 -9 23 C-9.66 23 -10.32 23 -11 23 C-12.58200941 19.83598119 -12.06168567 16.46125163 -12 13 C-12 12.01 -12 11.02 -12 10 C-9.16255688 5.62195202 -6.10378414 2.45822404 -1 1 C-0.67 0.67 -0.34 0.34 0 0 Z " fill="#F2EBE1" transform="translate(95,66)"/>
<path d="M0 0 C1.54795146 2.32192719 2.76119454 4.52238908 4 7 C4.33 7.33 4.66 7.66 5 8 C5.33 8.99 5.66 9.98 6 11 C9.56086658 12.18695553 12.97331024 12.35095418 16.6875 12.5625 C17.38939453 12.60568359 18.09128906 12.64886719 18.81445312 12.69335938 C20.54275206 12.7991736 22.2713511 12.90006581 24 13 C24 14.65 24 16.3 24 18 C22.02 18 20.04 18 18 18 C17.97315321 20.64590014 17.95323643 23.29153096 17.9375 25.9375 C17.92912109 26.69224609 17.92074219 27.44699219 17.91210938 28.22460938 C17.90347559 30.14994313 17.94775667 32.07535581 18 34 C18.33 34.33 18.66 34.66 19 35 C19.350625 35.515625 19.70125 36.03125 20.0625 36.5625 C23.22978466 38.91242088 26.1254766 38.24600149 30 38 C30.66 37.67 31.32 37.34 32 37 C32.66 37.66 33.32 38.32 34 39 C34.99 39 35.98 39 37 39 C37 40.65 37 42.3 37 44 C35.68 43.67 34.36 43.34 33 43 C33 43.33 33 43.66 33 44 C29.04 44 25.08 44 21 44 C21 42.35 21 40.7 21 39 C20.34 39 19.68 39 19 39 C19 40.65 19 42.3 19 44 C15.37 44 11.74 44 8 44 C8 42.02 8 40.04 8 38 C6.515 38.495 6.515 38.495 5 39 C3.85110867 35.06094403 3.47417305 31.06434042 3 27 C-0.3 26.67 -3.6 26.34 -7 26 C-7 26.99 -7 27.98 -7 29 C-3.7 29 -0.4 29 3 29 C3 30.32 3 31.64 3 33 C-1.95 33 -6.9 33 -12 33 C-14.40708672 26.9822832 -15.02730264 22.14611435 -13 15.9375 C-12.505 14.9784375 -12.505 14.9784375 -12 14 C-9.36 13.67 -6.72 13.34 -4 13 C-4 12.34 -4 11.68 -4 11 C-2.68 11 -1.36 11 0 11 C0 7.37 0 3.74 0 0 Z " fill="#F9F2F3" transform="translate(111,79)"/>
<path d="M0 0 C0.33 0.66 0.66 1.32 1 2 C2.65 2 4.3 2 6 2 C6.33 2.66 6.66 3.32 7 4 C6.34 4 5.68 4 5 4 C5 9.61 5 15.22 5 21 C7.31 21 9.62 21 12 21 C12 15.72 12 10.44 12 5 C12.99 5 13.98 5 15 5 C15 10.28 15 15.56 15 21 C17.31 21 19.62 21 22 21 C22 15.72 22 10.44 22 5 C23.32 5 24.64 5 26 5 C26 10.28 26 15.56 26 21 C28.31 21 30.62 21 33 21 C33 17.7 33 14.4 33 11 C33.66 11 34.32 11 35 11 C35.495 14.96 35.495 14.96 36 19 C41.61 19.33 47.22 19.66 53 20 C53 18.68 53 17.36 53 16 C49.7 16 46.4 16 43 16 C43 15.01 43 14.02 43 13 C44.64574566 12.97311849 46.29161413 12.95365877 47.9375 12.9375 C49.31228516 12.92009766 49.31228516 12.92009766 50.71484375 12.90234375 C53 13 53 13 54 14 C54.14115161 16.67058851 54.04247107 19.32432238 54 22 C54.66 22.33 55.32 22.66 56 23 C56 23.66 56 24.32 56 25 C56.66 25 57.32 25 58 25 C58 26.98 58 28.96 58 31 C55.54101345 31.08076963 53.08466258 31.14037143 50.625 31.1875 C49.92632812 31.21263672 49.22765625 31.23777344 48.5078125 31.26367188 C46.4765625 31.29296875 46.4765625 31.29296875 43 31 C42.34 30.01 41.68 29.02 41 28 C40.505 29.485 40.505 29.485 40 31 C35.33333333 31 30.66666667 31 26 31 C21.57184067 32.24598528 21.57184067 32.24598528 18 35 C17.566875 34.0409375 17.566875 34.0409375 17.125 33.0625 C16.17176549 30.84793921 16.17176549 30.84793921 14 30 C13.67 31.65 13.34 33.3 13 35 C12.67 34.01 12.34 33.02 12 32 C12.33 31.34 12.66 30.68 13 30 C12.071875 30.185625 11.14375 30.37125 10.1875 30.5625 C7 31 7 31 4 30 C4 29.34 4 28.68 4 28 C3.01 28.66 2.02 29.32 1 30 C-2.1964086 31.06546953 -4.65747276 31.07427838 -8 31 C-8 29.35 -8 27.7 -8 26 C-2.555 25.01 -2.555 25.01 3 24 C3.33 23.01 3.66 22.02 4 21 C1.36 21 -1.28 21 -4 21 C-3.0409375 20.1028125 -3.0409375 20.1028125 -2.0625 19.1875 C1.1729338 15.7559793 1.26841424 12.62012889 1.234375 8.0078125 C0.90258452 5.16547403 -0.30477374 3.26030168 -2 1 C-1.34 0.67 -0.68 0.34 0 0 Z " fill="#F8F5F8" transform="translate(61,92)"/>
<path d="M0 0 C2.40746448 1.21919775 4.67798125 2.61993225 7 4 C6.93039063 5.78857422 6.93039063 5.78857422 6.859375 7.61328125 C6.82185689 9.17966247 6.78545677 10.74607076 6.75 12.3125 C6.71648437 13.09818359 6.68296875 13.88386719 6.6484375 14.69335938 C6.61146468 16.86551236 6.61467302 18.8609779 7 21 C8.9004467 22.84315671 8.9004467 22.84315671 11 24 C11.25 27.6875 11.25 27.6875 11 31 C9.88625 30.979375 8.7725 30.95875 7.625 30.9375 C4.16784079 30.73619282 4.16784079 30.73619282 2 32 C1.01 31.67 0.02 31.34 -1 31 C-0.38461538 24.47692308 -0.38461538 24.47692308 1.5625 22.0625 C2.036875 21.711875 2.51125 21.36125 3 21 C2.01 21 1.02 21 0 21 C0 19.02 0 17.04 0 15 C-1.98 15 -3.96 15 -6 15 C-6 16.98 -6 18.96 -6 21 C-8.31 21 -10.62 21 -13 21 C-13 15.39 -13 9.78 -13 4 C-4.64516129 -0.77419355 -4.64516129 -0.77419355 0 0 Z " fill="#B3223D" transform="translate(150,92)"/>
<path d="M0 0 C0.66 0 1.32 0 2 0 C2.33 2.64 2.66 5.28 3 8 C8.61 8.33 14.22 8.66 20 9 C20 7.68 20 6.36 20 5 C16.7 5 13.4 5 10 5 C10 4.01 10 3.02 10 2 C11.64574566 1.97311849 13.29161413 1.95365877 14.9375 1.9375 C16.31228516 1.92009766 16.31228516 1.92009766 17.71484375 1.90234375 C20 2 20 2 21 3 C21.14115161 5.67058851 21.04247107 8.32432238 21 11 C21.66 11.33 22.32 11.66 23 12 C23 12.66 23 13.32 23 14 C23.66 14 24.32 14 25 14 C25 15.98 25 17.96 25 20 C22.54101345 20.08076963 20.08466258 20.14037143 17.625 20.1875 C16.92632812 20.21263672 16.22765625 20.23777344 15.5078125 20.26367188 C13.4765625 20.29296875 13.4765625 20.29296875 10 20 C9.34 19.01 8.68 18.02 8 17 C7.67 17.99 7.34 18.98 7 20 C2.33333333 20 -2.33333333 20 -7 20 C-11.42815933 21.24598528 -11.42815933 21.24598528 -15 24 C-16.5625 21.75 -16.5625 21.75 -18 19 C-17.58984375 16.828125 -17.58984375 16.828125 -17 15 C-16.39671875 15.01160156 -15.7934375 15.02320312 -15.171875 15.03515625 C-14.37265625 15.04417969 -13.5734375 15.05320312 -12.75 15.0625 C-11.96109375 15.07410156 -11.1721875 15.08570312 -10.359375 15.09765625 C-8.09308998 15.00385306 -6.1711105 14.63241063 -4 14 C-4.33 12.68 -4.66 11.36 -5 10 C-3.35 10 -1.7 10 0 10 C0 6.7 0 3.4 0 0 Z " fill="#FAEFF5" transform="translate(94,103)"/>
<path d="M0 0 C0.74636719 -0.01160156 1.49273437 -0.02320312 2.26171875 -0.03515625 C6.68173857 -0.01168712 10.22341855 0.09841855 13.5 3.375 C13.87859559 6.31593052 13.97775614 8.65144958 13.8125 11.5625 C13.78994141 12.31208984 13.76738281 13.06167969 13.74414062 13.83398438 C13.68529157 15.6818447 13.59560938 17.52867667 13.5 19.375 C11.52 19.375 9.54 19.375 7.5 19.375 C7.5 14.425 7.5 9.475 7.5 4.375 C6.18 4.375 4.86 4.375 3.5 4.375 C3.5 9.655 3.5 14.935 3.5 20.375 C1.19 20.375 -1.12 20.375 -3.5 20.375 C-3.5 15.095 -3.5 9.815 -3.5 4.375 C-4.49 4.375 -5.48 4.375 -6.5 4.375 C-6.5 9.655 -6.5 14.935 -6.5 20.375 C-8.81 20.375 -11.12 20.375 -13.5 20.375 C-13.63487595 17.60254986 -13.73400807 14.83662912 -13.8125 12.0625 C-13.85439453 11.27681641 -13.89628906 10.49113281 -13.93945312 9.68164062 C-13.98620808 7.48415797 -13.94398078 5.52804966 -13.5 3.375 C-9.74601883 -0.43798283 -5.04136154 -0.07836313 0 0 Z " fill="#672C25" transform="translate(79.5,92.625)"/>
<path d="M0 0 C1.84765625 0.33984375 1.84765625 0.33984375 4.0625 0.9375 C4.79597656 1.13214844 5.52945313 1.32679687 6.28515625 1.52734375 C7.13400391 1.76130859 7.13400391 1.76130859 8 2 C7.01 3.485 7.01 3.485 6 5 C5.67 5.66 5.34 6.32 5 7 C4.01 6.34 3.02 5.68 2 5 C-2.72185788 4.48675458 -5.10117921 5.40078614 -9 8 C-9.66 8 -10.32 8 -11 8 C-11 13.61 -11 19.22 -11 25 C-8.69 25 -6.38 25 -4 25 C-4 23.02 -4 21.04 -4 19 C-2.02 19 -0.04 19 2 19 C2 20.98 2 22.96 2 25 C2.99 25 3.98 25 5 25 C4.67 25.99 4.34 26.98 4 28 C3.34 28 2.68 28 2 28 C2 28.99 2 29.98 2 31 C2.66 31.33 3.32 31.66 4 32 C3.01 32 2.02 32 1 32 C0.67 32.99 0.34 33.98 0 35 C-0.495 32.525 -0.495 32.525 -1 30 C-1.99 30.33 -2.98 30.66 -4 31 C-4.66 30.34 -5.32 29.68 -6 29 C-6.33 29.33 -6.66 29.66 -7 30 C-12.73611111 30.27314815 -12.73611111 30.27314815 -15 30 C-15.66 29.34 -16.32 28.68 -17 28 C-18.31747324 27.30251417 -19.64914193 26.63040043 -21 26 C-20.34 25.67 -19.68 25.34 -19 25 C-19 19.72 -19 14.44 -19 9 C-17.02 9 -15.04 9 -13 9 C-13 7.35 -13 5.7 -13 4 C-13.66 3.67 -14.32 3.34 -15 3 C-11.07537843 1.90220376 -7.19340963 1.61322246 -3.14453125 1.28125 C-1.02119861 1.22425033 -1.02119861 1.22425033 0 0 Z " fill="#FDF4F7" transform="translate(148,88)"/>
<path d="M0 0 C3.58552881 1.63687185 4.79315055 2.68972583 7 6 C7.43145362 11.35002483 7.45651329 14.64735364 4 19 C0.28428072 21.47714618 -2.6971977 21.42593397 -7 21 C-10.4203866 19.82986774 -10.91540482 19.12689277 -13 16 C-13.77649955 10.71980308 -13.87107535 6.38827635 -11 1.8125 C-7.14469466 -0.51674697 -4.39345909 -0.82710869 0 0 Z " fill="#B41E3D" transform="translate(56,92)"/>
<path d="M0 0 C2.64 0 5.28 0 8 0 C8 4.95 8 9.9 8 15 C9.299375 14.979375 10.59875 14.95875 11.9375 14.9375 C13.29165633 14.91600546 14.64756083 14.92851801 16 15 C16.33 15.33 16.66 15.66 17 16 C16.62056512 20.09789669 16.30694043 22.53958935 14 26 C14.99 26 15.98 26 17 26 C17 27.65 17 29.3 17 31 C4 31 4 31 2 30 C2.33 28.68 2.66 27.36 3 26 C5.97 26 8.94 26 12 26 C12 25.01 12 24.02 12 23 C11.01 23 10.02 23 9 23 C9 22.34 9 21.68 9 21 C6.03 21 3.06 21 0 21 C0 14.07 0 7.14 0 0 Z " fill="#DEAEB4" transform="translate(160,92)"/>
<path d="M0 0 C4.95 0 9.9 0 15 0 C15 1.32 15 2.64 15 4 C11.7 4 8.4 4 5 4 C5 4.99 5 5.98 5 7 C8.3 7 11.6 7 15 7 C15 8.65 15 10.3 15 12 C11.7 12 8.4 12 5 12 C5 12.99 5 13.98 5 15 C8.3 15 11.6 15 15 15 C15 16.32 15 17.64 15 19 C10.05 19 5.1 19 0 19 C-2.27681661 13.30795848 -2.27681661 13.30795848 -2.25 9.5 C-2.25515625 8.7678125 -2.2603125 8.035625 -2.265625 7.28125 C-2 5 -2 5 0 0 Z " fill="#6F221E" transform="translate(99,93)"/>
<path d="M0 0 C4.66460134 1.60345671 9.11941597 3.94449342 13 7 C13.33 7.99 13.66 8.98 14 10 C10.2089881 8.55049545 6.6125362 6.84827434 3 5 C3 5.66 3 6.32 3 7 C3.66 7.33 4.32 7.66 5 8 C5 10.97 5 13.94 5 17 C4.34 17 3.68 17 3 17 C3 16.34 3 15.68 3 15 C2.01 15.33 1.02 15.66 0 16 C-1.21869929 18.50447516 -1.21869929 18.50447516 -2 21 C-3.65 20.67 -5.3 20.34 -7 20 C-7 18.02 -7 16.04 -7 14 C-8.32 14 -9.64 14 -11 14 C-10.79375 14.78375 -10.5875 15.5675 -10.375 16.375 C-10.189375 17.674375 -10.189375 17.674375 -10 19 C-10.66 19.66 -11.32 20.32 -12 21 C-12 9.46252962 -12 9.46252962 -7.6640625 4.58203125 C-5.62607591 2.64450879 -3.69083475 1.76880993 -1 1 C-0.67 0.67 -0.34 0.34 0 0 Z " fill="#F9EDF0" transform="translate(95,66)"/>
<path d="M0 0 C0.7528125 0.01289062 1.505625 0.02578125 2.28125 0.0390625 C4.69150034 0.40399477 6.39109398 1.17675794 8.5 2.375 C8.5 4.355 8.5 6.335 8.5 8.375 C6.85 8.375 5.2 8.375 3.5 8.375 C3.5 7.385 3.5 6.395 3.5 5.375 C1.85 5.375 0.2 5.375 -1.5 5.375 C-1.52689216 6.85406892 -1.54634621 8.33327483 -1.5625 9.8125 C-1.57410156 10.63621094 -1.58570313 11.45992187 -1.59765625 12.30859375 C-1.73267348 14.36663938 -1.73267348 14.36663938 -0.5 15.375 C2.56481021 15.5363058 4.55549278 15.35650241 7.5 14.375 C7.83 16.025 8.16 17.675 8.5 19.375 C4.36780449 21.37848873 1.07364594 21.94670574 -3.5 21.375 C-6.4375 19.625 -6.4375 19.625 -8.5 16.375 C-9.13494734 12.29239997 -9.30978994 8.43511923 -8.5 4.375 C-5.96506445 0.98191255 -4.2309359 -0.15938457 0 0 Z " fill="#6C3732" transform="translate(31.5,91.625)"/>
<path d="M0 0 C5.94 0 11.88 0 18 0 C18 1.65 18 3.3 18 5 C16.02 5 14.04 5 12 5 C12 10.28 12 15.56 12 21 C9.69 21 7.38 21 5 21 C5 15.72 5 10.44 5 5 C3.35 5 1.7 5 0 5 C0 3.35 0 1.7 0 0 Z " fill="#671B0F" transform="translate(117,92)"/>
<path d="M0 0 C0.33 0.66 0.66 1.32 1 2 C2.65 2 4.3 2 6 2 C6.33 2.66 6.66 3.32 7 4 C6.34 4 5.68 4 5 4 C5.33 10.6 5.66 17.2 6 24 C6.99 24 7.98 24 9 24 C9 24.66 9 25.32 9 26 C9.99 26.33 10.98 26.66 12 27 C11.67 28.32 11.34 29.64 11 31 C9.02 31 7.04 31 5 31 C4.67 30.01 4.34 29.02 4 28 C3.01 28.66 2.02 29.32 1 30 C-2.1964086 31.06546953 -4.65747276 31.07427838 -8 31 C-8 29.35 -8 27.7 -8 26 C-2.555 25.01 -2.555 25.01 3 24 C3.33 23.01 3.66 22.02 4 21 C1.36 21 -1.28 21 -4 21 C-3.0409375 20.1028125 -3.0409375 20.1028125 -2.0625 19.1875 C1.1729338 15.7559793 1.26841424 12.62012889 1.234375 8.0078125 C0.90258452 5.16547403 -0.30477374 3.26030168 -2 1 C-1.34 0.67 -0.68 0.34 0 0 Z " fill="#FCF9F2" transform="translate(61,92)"/>
<path d="M0 0 C0.78375 0.350625 1.5675 0.70125 2.375 1.0625 C3.24125 1.371875 4.1075 1.68125 5 2 C5.66 1.67 6.32 1.34 7 1 C7.33 1.99 7.66 2.98 8 4 C8.99 4.33 9.98 4.66 11 5 C11 5.66 11 6.32 11 7 C10.34 7 9.68 7 9 7 C9 7.99 9 8.98 9 10 C8.34 10 7.68 10 7 10 C6.67 9.67 6.34 9.34 6 9 C6 9.33 6 9.66 6 10 C5.30132812 10.04898438 4.60265625 10.09796875 3.8828125 10.1484375 C2.97273438 10.22320312 2.06265625 10.29796875 1.125 10.375 C0.22007813 10.44460937 -0.68484375 10.51421875 -1.6171875 10.5859375 C-4.17941903 10.79568132 -4.17941903 10.79568132 -6 13 C-6.33 12.67 -6.66 12.34 -7 12 C-7.99 12.99 -8.98 13.98 -10 15 C-10.66 14.01 -11.32 13.02 -12 12 C-12.66 12 -13.32 12 -14 12 C-14 11.34 -14 10.68 -14 10 C-15.32 10 -16.64 10 -18 10 C-18 8.35 -18 6.7 -18 5 C-17.34 5 -16.68 5 -16 5 C-16 5.99 -16 6.98 -16 8 C-15.34 8 -14.68 8 -14 8 C-13.67 7.01 -13.34 6.02 -13 5 C-10.75 3.6875 -10.75 3.6875 -8 3 C-5.3125 3.875 -5.3125 3.875 -3 5 C-2.34 5 -1.68 5 -1 5 C-0.67 3.35 -0.34 1.7 0 0 Z M2 3 C2.33 3.66 2.66 4.32 3 5 C3.33 4.34 3.66 3.68 4 3 C3.34 3 2.68 3 2 3 Z " fill="#E7E7E7" transform="translate(39,113)"/>
<path d="M0 0 C1.32 0 2.64 0 4 0 C4 6.6 4 13.2 4 20 C6.97 20 9.94 20 13 20 C13 20.66 13 21.32 13 22 C14.65 21.67 16.3 21.34 18 21 C17.34 22.32 16.68 23.64 16 25 C15.34 25 14.68 25 14 25 C13.67 25.99 13.34 26.98 13 28 C13 27.01 13 26.02 13 25 C11.02 25.33 9.04 25.66 7 26 C7 26.99 7 27.98 7 29 C7.66 28.01 8.32 27.02 9 26 C9.625 28.8125 9.625 28.8125 10 32 C9.34 32.99 8.68 33.98 8 35 C6.0625 34.6875 6.0625 34.6875 4 34 C3.505 32.515 3.505 32.515 3 31 C3.33 30.67 3.66 30.34 4 30 C4.41692853 26.58399407 4.41692853 26.58399407 4 23 C3.32839844 22.60941406 2.65679687 22.21882813 1.96484375 21.81640625 C0 20 0 20 -0.23510742 18.17285156 C-0.16840446 15.86838015 0.01296898 13.60568109 0.25 11.3125 C0.31574219 10.51521484 0.38148438 9.71792969 0.44921875 8.89648438 C0.61412957 6.92933393 0.80462594 4.96435878 1 3 C0.34 2.67 -0.32 2.34 -1 2 C-0.67 1.34 -0.34 0.68 0 0 Z " fill="#FDF0F4" transform="translate(156,93)"/>
<path d="M0 0 C0.33 1.98 0.66 3.96 1 6 C-0.98 6.99 -0.98 6.99 -3 8 C-3 6.35 -3 4.7 -3 3 C-4.65 3.33 -6.3 3.66 -8 4 C-8 5.65 -8 7.3 -8 9 C-9.65 8.34 -11.3 7.68 -13 7 C-13 7.66 -13 8.32 -13 9 C-13.99 9 -14.98 9 -16 9 C-16 9.99 -16 10.98 -16 12 C-18.64 12 -21.28 12 -24 12 C-24.33 11.01 -24.66 10.02 -25 9 C-25.66 8.67 -26.32 8.34 -27 8 C-27 5.69 -27 3.38 -27 1 C-25.68 1 -24.36 1 -23 1 C-22.67 2.98 -22.34 4.96 -22 7 C-20.68 7 -19.36 7 -18 7 C-17.67 5.35 -17.34 3.7 -17 2 C-15.68 2 -14.36 2 -13 2 C-13 2.66 -13 3.32 -13 4 C-12.34 4 -11.68 4 -11 4 C-11.33 2.68 -11.66 1.36 -12 0 C-7.44729118 -2.48329572 -4.775353 -1.68541871 0 0 Z " fill="#B92845" transform="translate(111,79)"/>
<path d="M0 0 C3.19624133 0.61342005 5.64612874 2.08362874 7.93359375 4.37109375 C8.07474536 7.04168226 7.97606482 9.69541613 7.93359375 12.37109375 C5.95359375 12.70109375 3.97359375 13.03109375 1.93359375 13.37109375 C1.60359375 11.06109375 1.27359375 8.75109375 0.93359375 6.37109375 C-0.71640625 6.70109375 -2.36640625 7.03109375 -4.06640625 7.37109375 C-4.39640625 9.35109375 -4.72640625 11.33109375 -5.06640625 13.37109375 C-8.03640625 12.87609375 -8.03640625 12.87609375 -11.06640625 12.37109375 C-11.48309094 8.12090996 -11.50662707 6.01766807 -9.06640625 2.43359375 C-5.68659581 0.10997407 -3.98938609 -0.2488653 0 0 Z " fill="#6F2F27" transform="translate(54.06640625,91.62890625)"/>
<path d="M0 0 C1.98 0 3.96 0 6 0 C6 4.95 6 9.9 6 15 C8.97 15 11.94 15 15 15 C15 16.32 15 17.64 15 19 C10.05 19 5.1 19 0 19 C0 12.73 0 6.46 0 0 Z " fill="#A81735" transform="translate(161,93)"/>
<path d="M0 0 C0.433125 0.474375 0.86625 0.94875 1.3125 1.4375 C3.41114067 3.38068581 4.2617609 3.2348881 7.0625 3.25 C10.78377932 3.27046033 10.78377932 3.27046033 13 2 C13.66 2.66 14.32 3.32 15 4 C15.99 4 16.98 4 18 4 C18 5.65 18 7.3 18 9 C16.68 8.67 15.36 8.34 14 8 C14 8.33 14 8.66 14 9 C10.04 9 6.08 9 2 9 C2 7.35 2 5.7 2 4 C1.34 4 0.68 4 0 4 C0 5.65 0 7.3 0 9 C-3.3 9 -6.6 9 -10 9 C-10 7.35 -10 5.7 -10 4 C-9.360625 3.87625 -8.72125 3.7525 -8.0625 3.625 C-7.0415625 3.315625 -7.0415625 3.315625 -6 3 C-5.67 2.34 -5.34 1.68 -5 1 C-2.625 0.1875 -2.625 0.1875 0 0 Z " fill="#B0B0B0" transform="translate(130,114)"/>
<path d="M0 0 C3.375 1.5 3.375 1.5 6 4 C6.52179258 6.84811781 6.29265249 9.07347513 6 12 C3.03 11.505 3.03 11.505 0 11 C0 9.02 0 7.04 0 5 C-1.98 5 -3.96 5 -6 5 C-6 6.65 -6 8.3 -6 10 C-7.98 10.66 -9.96 11.32 -12 12 C-12.51752022 6.82479784 -12.51752022 6.82479784 -12 4 C-8.23974282 0.41880269 -5.14089403 -0.85681567 0 0 Z " fill="#771B18" transform="translate(150,92)"/>
<path d="M0 0 C0.33 0 0.66 0 1 0 C0.95359375 1.19238281 0.9071875 2.38476562 0.859375 3.61328125 C0.82185689 5.17966247 0.78545677 6.74607076 0.75 8.3125 C0.71648437 9.09818359 0.68296875 9.88386719 0.6484375 10.69335938 C0.61146468 12.86551236 0.61467302 14.8609779 1 17 C2.9004467 18.84315671 2.9004467 18.84315671 5 20 C5.25 23.6875 5.25 23.6875 5 27 C3.88625 26.979375 2.7725 26.95875 1.625 26.9375 C-1.83215921 26.73619282 -1.83215921 26.73619282 -4 28 C-4.99 27.67 -5.98 27.34 -7 27 C-6.38461538 20.47692308 -6.38461538 20.47692308 -4.4375 18.0625 C-3.7259375 17.5365625 -3.7259375 17.5365625 -3 17 C-3.99 16.67 -4.98 16.34 -6 16 C-4.02 16 -2.04 16 0 16 C0 10.72 0 5.44 0 0 Z " fill="#B69A9F" transform="translate(156,96)"/>
<path d="M0 0 C1.64574566 -0.02688151 3.29161413 -0.04634123 4.9375 -0.0625 C5.85402344 -0.07410156 6.77054688 -0.08570312 7.71484375 -0.09765625 C10 0 10 0 11 1 C11.14115161 3.67058851 11.04247107 6.32432238 11 9 C11.66 9.33 12.32 9.66 13 10 C13 10.66 13 11.32 13 12 C13.66 12 14.32 12 15 12 C15 13.98 15 15.96 15 18 C12.03 18 9.06 18 6 18 C5.67 16.68 5.34 15.36 5 14 C6.65 13.67 8.3 13.34 10 13 C9.4117476 10.94511644 9.4117476 10.94511644 8 9 C5.35212912 8.29626983 5.35212912 8.29626983 2.375 8.25 C0.87066406 8.16492188 0.87066406 8.16492188 -0.6640625 8.078125 C-1.43492188 8.05234375 -2.20578125 8.0265625 -3 8 C-3 7.67 -3 7.34 -3 7 C1.29 7 5.58 7 10 7 C10 5.68 10 4.36 10 3 C6.7 3 3.4 3 0 3 C0 2.01 0 1.02 0 0 Z " fill="#FFCCD9" transform="translate(104,105)"/>
<path d="M0 0 C-0.33 1.32 -0.66 2.64 -1 4 C-6.445 4.495 -6.445 4.495 -12 5 C-13.14935804 10.04643583 -13.14935804 10.04643583 -11 14 C-12.65 14.33 -14.3 14.66 -16 15 C-16 13.68 -16 12.36 -16 11 C-17.98 11.99 -17.98 11.99 -20 13 C-19.67 12.01 -19.34 11.02 -19 10 C-18.34 10 -17.68 10 -17 10 C-17 9.01 -17 8.02 -17 7 C-16.34 7 -15.68 7 -15 7 C-15 6.34 -15 5.68 -15 5 C-16.65 4.67 -18.3 4.34 -20 4 C-19.34 2.68 -18.68 1.36 -18 0 C-14.04 0.99 -14.04 0.99 -10 2 C-9.67 1.34 -9.34 0.68 -9 0 C-5.65506316 -0.99444068 -3.31044803 -1.10348268 0 0 Z " fill="#F7F5F6" transform="translate(65,113)"/>
<path d="M0 0 C6 1 6 1 7 2 C7.07319621 4.69654854 7.09242537 7.36691458 7.0625 10.0625 C7.05798828 10.82111328 7.05347656 11.57972656 7.04882812 12.36132812 C7.0370068 14.24091871 7.01907078 16.12046899 7 18 C5.02 18 3.04 18 1 18 C0.67 12.06 0.34 6.12 0 0 Z " fill="#6A2018" transform="translate(86,94)"/>
<path d="M0 0 C1.84765625 0.33984375 1.84765625 0.33984375 4.0625 0.9375 C4.79597656 1.13214844 5.52945313 1.32679687 6.28515625 1.52734375 C7.13400391 1.76130859 7.13400391 1.76130859 8 2 C7.01 3.485 7.01 3.485 6 5 C5.67 5.66 5.34 6.32 5 7 C4.01 6.34 3.02 5.68 2 5 C-2.72185788 4.48675458 -5.10117921 5.40078614 -9 8 C-9.66 8 -10.32 8 -11 8 C-11 8.66 -11 9.32 -11 10 C-13.31 10 -15.62 10 -18 10 C-18 14.62 -18 19.24 -18 24 C-18.33 24 -18.66 24 -19 24 C-19 19.05 -19 14.1 -19 9 C-17.02 9 -15.04 9 -13 9 C-13 7.35 -13 5.7 -13 4 C-13.66 3.67 -14.32 3.34 -15 3 C-11.07537843 1.90220376 -7.19340963 1.61322246 -3.14453125 1.28125 C-1.02119861 1.22425033 -1.02119861 1.22425033 0 0 Z " fill="#F7E7E4" transform="translate(148,88)"/>
<path d="M0 0 C0.33 0 0.66 0 1 0 C1 1.65 1 3.3 1 5 C-2.3 5 -5.6 5 -9 5 C-9 5.99 -9 6.98 -9 8 C-5.7 8 -2.4 8 1 8 C1 9.32 1 10.64 1 12 C-3.95 12 -8.9 12 -14 12 C-16 7 -16 7 -16 4 C-10.72 4 -5.44 4 0 4 C0 2.68 0 1.36 0 0 Z " fill="#B51539" transform="translate(113,100)"/>
<path d="M0 0 C1.54795146 2.32192719 2.76119454 4.52238908 4 7 C4.33 7.33 4.66 7.66 5 8 C5.33 8.99 5.66 9.98 6 11 C6.99 11.66 7.98 12.32 9 13 C8.01 13 7.02 13 6 13 C6 14.65 6 16.3 6 18 C7.65 18 9.3 18 11 18 C11 18.33 11 18.66 11 19 C9.576875 18.938125 9.576875 18.938125 8.125 18.875 C4.89755144 18.65026182 4.89755144 18.65026182 3 21 C0.6171875 21.1953125 0.6171875 21.1953125 -2.125 21.125 C-3.49011719 21.09792969 -3.49011719 21.09792969 -4.8828125 21.0703125 C-5.58148438 21.04710938 -6.28015625 21.02390625 -7 21 C-7 20.01 -7 19.02 -7 18 C-3.7 18 -0.4 18 3 18 C3 16.35 3 14.7 3 13 C0.69 13 -1.62 13 -4 13 C-4 12.34 -4 11.68 -4 11 C-2.68 11 -1.36 11 0 11 C0 7.37 0 3.74 0 0 Z " fill="#FAEBEC" transform="translate(111,79)"/>
<path d="M0 0 C2.3125 -0.25 2.3125 -0.25 5 0 C6 1.33333333 7 2.66666667 8 4 C11.1408885 4.39261106 12.97923697 4.00692101 16 3 C16.33 4.65 16.66 6.3 17 8 C12.86780449 10.00348873 9.57364594 10.57170574 5 10 C2.0625 7.8125 2.0625 7.8125 0 5 C-0.3125 2.1875 -0.3125 2.1875 0 0 Z " fill="#AF3048" transform="translate(23,103)"/>
<path d="M0 0 C0.33 0.66 0.66 1.32 1 2 C1.66 2 2.32 2 3 2 C3 2.99 3 3.98 3 5 C3.33 4.34 3.66 3.68 4 3 C5.32 3.33 6.64 3.66 8 4 C7.67 5.32 7.34 6.64 7 8 C5.02 8 3.04 8 1 8 C0.67 7.01 0.34 6.02 0 5 C-0.99 5.66 -1.98 6.32 -3 7 C-6.1964086 8.06546953 -8.65747276 8.07427838 -12 8 C-12 6.35 -12 4.7 -12 3 C-10.82630859 2.80083984 -10.82630859 2.80083984 -9.62890625 2.59765625 C-8.61699219 2.42105469 -7.60507812 2.24445313 -6.5625 2.0625 C-5.55316406 1.88847656 -4.54382812 1.71445313 -3.50390625 1.53515625 C-1.0712562 1.25248903 -1.0712562 1.25248903 0 0 Z " fill="#9EA1A1" transform="translate(65,115)"/>
<path d="M0 0 C1.98 0 3.96 0 6 0 C6 1.98 6 3.96 6 6 C6.99 6 7.98 6 9 6 C8.67 6.99 8.34 7.98 8 9 C7.34 9 6.68 9 6 9 C6 9.99 6 10.98 6 12 C6.66 12.33 7.32 12.66 8 13 C7.01 13 6.02 13 5 13 C4.67 13.99 4.34 14.98 4 16 C3.67 14.35 3.34 12.7 3 11 C2.01 11.33 1.02 11.66 0 12 C-0.5625 10.0625 -0.5625 10.0625 -1 8 C-0.67 7.67 -0.34 7.34 0 7 C0.04092937 4.66702567 0.04241723 2.33294775 0 0 Z " fill="#F2E1E9" transform="translate(144,107)"/>
<path d="M0 0 C2.76276177 0.52268466 5.3260876 1.10869587 8 2 C10.07647876 1.69193547 10.07647876 1.69193547 12.1875 1.0625 C13.445625 0.711875 14.70375 0.36125 16 0 C16 1.98 16 3.96 16 6 C14.68 6.33 13.36 6.66 12 7 C11.34 6.01 10.68 5.02 10 4 C9.67 4.99 9.34 5.98 9 7 C5.66666667 7 2.33333333 7 -1 7 C-0.67 6.34 -0.34 5.68 0 5 C-0.33 4.67 -0.66 4.34 -1 4 C-0.5625 1.9375 -0.5625 1.9375 0 0 Z " fill="#5C5C5C" transform="translate(92,116)"/>
<path d="M0 0 C0.33 0 0.66 0 1 0 C1.33 2.31 1.66 4.62 2 7 C3.32 7 4.64 7 6 7 C6 5.02 6 3.04 6 1 C6.33 1 6.66 1 7 1 C7 6.28 7 11.56 7 17 C4.69 17 2.38 17 0 17 C0 11.39 0 5.78 0 0 Z " fill="#A63C4D" transform="translate(66,96)"/>
<path d="M0 0 C0.495 0.350625 0.99 0.70125 1.5 1.0625 C5.22697603 2.46011601 8.09802848 1.65032859 12 1 C11.67 2.65 11.34 4.3 11 6 C9.25 6.625 9.25 6.625 7 7 C6.34 6.649375 5.68 6.29875 5 5.9375 C2.99925915 4.71702018 2.99925915 4.71702018 0.8125 5.75 C-1.14268533 6.88336565 -1.14268533 6.88336565 -2 9 C-2.66 9 -3.32 9 -4 9 C-4 8.01 -4 7.02 -4 6 C-7.12197478 7.3089572 -7.12197478 7.3089572 -9 10 C-9.66 9.67 -10.32 9.34 -11 9 C-10.67 8.01 -10.34 7.02 -10 6 C-9.34 6 -8.68 6 -8 6 C-7.67 5.34 -7.34 4.68 -7 4 C-6.01 4.33 -5.02 4.66 -4 5 C-3.67 4.01 -3.34 3.02 -3 2 C-2.01 1.34 -1.02 0.68 0 0 Z " fill="#F9F5F8" transform="translate(27,112)"/>
<path d="M0 0 C2.64 0 5.28 0 8 0 C8.33 0.99 8.66 1.98 9 3 C9.66 3 10.32 3 11 3 C11 2.34 11 1.68 11 1 C12.65 0.67 14.3 0.34 16 0 C15.34 1.32 14.68 2.64 14 4 C13.34 4 12.68 4 12 4 C11.67 4.99 11.34 5.98 11 7 C11 6.01 11 5.02 11 4 C9.02 4.33 7.04 4.66 5 5 C5 5.99 5 6.98 5 8 C5.66 7.01 6.32 6.02 7 5 C7.625 7.8125 7.625 7.8125 8 11 C7.01 12.485 7.01 12.485 6 14 C4.0625 13.6875 4.0625 13.6875 2 13 C1.67 12.01 1.34 11.02 1 10 C1.33 9.67 1.66 9.34 2 9 C2.25003964 5.54178598 2.25003964 5.54178598 2 2 C1.34 1.34 0.68 0.68 0 0 Z " fill="#FDF8FC" transform="translate(158,114)"/>
<path d="M0 0 C0.33 0 0.66 0 1 0 C1 2.31 1 4.62 1 7 C2.32 6.67 3.64 6.34 5 6 C5.33 4.02 5.66 2.04 6 0 C6.33 0 6.66 0 7 0 C7 5.28 7 10.56 7 16 C4.69 16 2.38 16 0 16 C0 10.72 0 5.44 0 0 Z " fill="#A43E4C" transform="translate(122,97)"/>
<path d="M0 0 C1.2065625 0.0309375 1.2065625 0.0309375 2.4375 0.0625 C2.7675 1.3825 3.0975 2.7025 3.4375 4.0625 C4.0975 4.0625 4.7575 4.0625 5.4375 4.0625 C5.4375 5.3825 5.4375 6.7025 5.4375 8.0625 C4.1175 8.0625 2.7975 8.0625 1.4375 8.0625 C1.4375 8.7225 1.4375 9.3825 1.4375 10.0625 C3.7475 10.0625 6.0575 10.0625 8.4375 10.0625 C8.4375 10.3925 8.4375 10.7225 8.4375 11.0625 C4.4775 11.0625 0.5175 11.0625 -3.5625 11.0625 C-2.9025 10.7325 -2.2425 10.4025 -1.5625 10.0625 C-1.5625 9.4025 -1.5625 8.7425 -1.5625 8.0625 C-2.8825 8.0625 -4.2025 8.0625 -5.5625 8.0625 C-5.2325 7.0725 -4.9025 6.0825 -4.5625 5.0625 C-3.9025 5.3925 -3.2425 5.7225 -2.5625 6.0625 C-2.8409375 4.8559375 -2.8409375 4.8559375 -3.125 3.625 C-3.269375 2.779375 -3.41375 1.93375 -3.5625 1.0625 C-2.5625 0.0625 -2.5625 0.0625 0 0 Z " fill="#A04854" transform="translate(105.5625,81.9375)"/>
<path d="M0 0 C2.97 0.495 2.97 0.495 6 1 C5.90460938 1.6290625 5.80921875 2.258125 5.7109375 2.90625 C4.93792204 8.87464846 5.19257468 13.25876663 7 19 C3.62883436 17.87627812 3.44117879 17.52837401 1.875 14.5625 C1.54242188 13.94503906 1.20984375 13.32757813 0.8671875 12.69140625 C-1.06889668 8.91516999 -1.15351404 6.29839315 -1 2 C-0.67 1.34 -0.34 0.68 0 0 Z " fill="#FBF9FB" transform="translate(115,97)"/>
<path d="M0 0 C4.66460134 1.60345671 9.11941597 3.94449342 13 7 C13.33 7.99 13.66 8.98 14 10 C10.09833308 8.53687491 6.45448511 6.73523694 2.76953125 4.8046875 C1.02055145 3.86201522 1.02055145 3.86201522 -1 4 C-1 4.66 -1 5.32 -1 6 C-3.1171875 7.54296875 -3.1171875 7.54296875 -5.875 9.1875 C-6.77992187 9.73792969 -7.68484375 10.28835937 -8.6171875 10.85546875 C-9.40351562 11.23316406 -10.18984375 11.61085938 -11 12 C-11.66 11.67 -12.32 11.34 -13 11 C-9.19802242 6.14920102 -6.83047363 3.14806923 -1 1 C-0.67 0.67 -0.34 0.34 0 0 Z " fill="#CCCBC9" transform="translate(95,66)"/>
<path d="M0 0 C4.29 0 8.58 0 13 0 C13 1.65 13 3.3 13 5 C12.01 5 11.02 5 10 5 C5.56503021 6.23400364 5.56503021 6.23400364 2 9 C0.4375 6.75 0.4375 6.75 -1 4 C-0.67 2.68 -0.34 1.36 0 0 Z " fill="#7B7C7C" transform="translate(77,118)"/>
<path d="M0 0 C0.33 0 0.66 0 1 0 C1.33 1.98 1.66 3.96 2 6 C3.65 6.33 5.3 6.66 7 7 C7 9.97 7 12.94 7 16 C4.69 16 2.38 16 0 16 C0 10.72 0 5.44 0 0 Z " fill="#B6354E" transform="translate(76,97)"/>
<path d="M0 0 C2.625 0.375 2.625 0.375 5 1 C5 3.97 5 6.94 5 10 C2.625 10.625 2.625 10.625 0 11 C-2 9 -2 9 -2.25 5.5 C-2 2 -2 2 0 0 Z " fill="#F8E7E0" transform="translate(51,97)"/>
<path d="M0 0 C1.32 0 2.64 0 4 0 C4 5.28 4 10.56 4 16 C2.02 16.33 0.04 16.66 -2 17 C-1.34 16.67 -0.68 16.34 0 16 C0 10.72 0 5.44 0 0 Z " fill="#FCE0E5" transform="translate(83,97)"/>
<path d="M0 0 C2.20703125 0.9609375 2.20703125 0.9609375 4.8125 2.375 C8.2338617 4.22802192 11.14475766 5.40475612 15 6 C15.33 6.99 15.66 7.98 16 9 C11.59248108 9.97944865 7.51540265 10 3 10 C3 8.35 3 6.7 3 5 C2.01 4.67 1.02 4.34 0 4 C0.33 3.67 0.66 3.34 1 3 C0.01 2.34 -0.98 1.68 -2 1 C-1.34 0.67 -0.68 0.34 0 0 Z " fill="#F3E9E8" transform="translate(96,69)"/>
<path d="M0 0 C2.31 0 4.62 0 7 0 C7 0.99 7 1.98 7 3 C7.99 3.33 8.98 3.66 10 4 C9.01 4.33 8.02 4.66 7 5 C5.78130071 7.50447516 5.78130071 7.50447516 5 10 C3.35 9.67 1.7 9.34 0 9 C-1.125 2.25 -1.125 2.25 0 0 Z " fill="#AE2E51" transform="translate(88,77)"/>
<path d="M0 0 C0.99 0.66 1.98 1.32 3 2 C3.99 2 4.98 2 6 2 C6 3.65 6 5.3 6 7 C4.68 6.67 3.36 6.34 2 6 C2 6.33 2 6.66 2 7 C-1.3 7 -4.6 7 -8 7 C-8.33 5.35 -8.66 3.7 -9 2 C-6.94921875 1.77213542 -4.8984375 1.54427083 -2.84765625 1.31640625 C-0.98859771 1.18113386 -0.98859771 1.18113386 0 0 Z " fill="#525353" transform="translate(142,116)"/>
<path d="M0 0 C1.98 0 3.96 0 6 0 C6 3.63 6 7.26 6 11 C4.02 11 2.04 11 0 11 C0 7.37 0 3.74 0 0 Z " fill="#721B15" transform="translate(161,93)"/>
<path d="M0 0 C1.36125 0.37125 1.36125 0.37125 2.75 0.75 C2.75 1.41 2.75 2.07 2.75 2.75 C0.44 3.41 -1.87 4.07 -4.25 4.75 C-4.25 5.41 -4.25 6.07 -4.25 6.75 C-3.26 6.42 -2.27 6.09 -1.25 5.75 C-1.25 7.73 -1.25 9.71 -1.25 11.75 C-4.22 11.255 -4.22 11.255 -7.25 10.75 C-7.73148148 4.49074074 -7.73148148 4.49074074 -5.625 1.25 C-3.25 -0.25 -3.25 -0.25 0 0 Z " fill="#63211E" transform="translate(50.25,93.25)"/>
<path d="M0 0 C0.66 0.99 1.32 1.98 2 3 C1.67 3.99 1.34 4.98 1 6 C0.90752619 7.47686111 0.87000929 8.95775501 0.875 10.4375 C0.87242188 11.19933594 0.86984375 11.96117188 0.8671875 12.74609375 C0.99723985 14.95315859 1.39143801 16.87969276 2 19 C1.34 19 0.68 19 0 19 C-1.35439668 16.29120665 -1.06501451 13.99066732 -1 11 C-1.66 11 -2.32 11 -3 11 C-3 14.3 -3 17.6 -3 21 C-5.31 21 -7.62 21 -10 21 C-10 20.67 -10 20.34 -10 20 C-8.02 20 -6.04 20 -4 20 C-4 14.72 -4 9.44 -4 4 C-2.68 4.33 -1.36 4.66 0 5 C-0.33 4.01 -0.66 3.02 -1 2 C-0.67 1.34 -0.34 0.68 0 0 Z " fill="#E8C1C3" transform="translate(97,92)"/>
<path d="M0 0 C0.33 0.66 0.66 1.32 1 2 C-0.65 2 -2.3 2 -4 2 C-4.33 4.31 -4.66 6.62 -5 9 C-7.97 8.505 -7.97 8.505 -11 8 C-11.20086443 4.28400809 -11.1519437 3.22791555 -9 0 C-5.49270578 -1.16909807 -3.55692677 -0.85056945 0 0 Z " fill="#6B261F" transform="translate(34,95)"/>
<path d="M0 0 C5.94 0 11.88 0 18 0 C18 1.65 18 3.3 18 5 C16.68 5 15.36 5 14 5 C14 4.01 14 3.02 14 2 C10.7 2.33 7.4 2.66 4 3 C4.33 3.66 4.66 4.32 5 5 C3.35 5 1.7 5 0 5 C0 3.35 0 1.7 0 0 Z " fill="#754842" transform="translate(117,92)"/>
<path d="M0 0 C0.33 0 0.66 0 1 0 C1.44070796 8.66725664 1.44070796 8.66725664 -2 13 C-6.06849409 15.71232939 -8.16476784 15.30699887 -13 15 C-13.66 14.34 -14.32 13.68 -15 13 C-11.37 13 -7.74 13 -4 13 C-4 12.01 -4 11.02 -4 10 C-4.66 9.67 -5.32 9.34 -6 9 C-5.67 8.01 -5.34 7.02 -5 6 C-2.9375 5.3125 -2.9375 5.3125 -1 5 C-0.67 3.35 -0.34 1.7 0 0 Z " fill="#B12842" transform="translate(62,98)"/>
<path d="M0 0 C0.99 0 1.98 0 3 0 C3 5.28 3 10.56 3 16 C3.66 16.33 4.32 16.66 5 17 C3.1875 17.625 3.1875 17.625 1 18 C0.01 17.34 -0.98 16.68 -2 16 C-1.34 16 -0.68 16 0 16 C0 10.72 0 5.44 0 0 Z " fill="#FCEDF1" transform="translate(73,97)"/>
<path d="M0 0 C1.32 0 2.64 0 4 0 C4.05382106 2.62527189 4.09358313 5.24944713 4.125 7.875 C4.14175781 8.62136719 4.15851563 9.36773437 4.17578125 10.13671875 C4.1933959 12.09194461 4.10320189 14.04742021 4 16 C3.34 16.66 2.68 17.32 2 18 C1.34 17.34 0.68 16.68 0 16 C0.33 15.01 0.66 14.02 1 13 C0.90461866 10.84072054 0.90461866 10.84072054 0.5625 8.5625 C0.16942716 5.62191708 0 2.9958149 0 0 Z " fill="#F8FDFD" transform="translate(131,100)"/>
<path d="M0 0 C1.8125 0.8125 1.8125 0.8125 2.8125 2.8125 C1.8225 3.3075 1.8225 3.3075 0.8125 3.8125 C0.15694881 6.33983235 0.15694881 6.33983235 -0.1875 8.8125 C-2.1675 9.4725 -4.1475 10.1325 -6.1875 10.8125 C-6.67445652 3.38641304 -6.67445652 3.38641304 -4.4375 0.75 C-2.1875 -0.1875 -2.1875 -0.1875 0 0 Z " fill="#64231B" transform="translate(144.1875,93.1875)"/>
<path d="M0 0 C1.32 0 2.64 0 4 0 C4.061875 0.94875 4.12375 1.8975 4.1875 2.875 C4.455625 3.90625 4.72375 4.9375 5 6 C7.46255685 7.45291273 7.46255685 7.45291273 10 8 C10 8.99 10 9.98 10 11 C7.69 11 5.38 11 3 11 C2.67 10.01 2.34 9.02 2 8 C1.34 7.67 0.68 7.34 0 7 C0 4.69 0 2.38 0 0 Z " fill="#632826" transform="translate(84,80)"/>
<path d="M0 0 C0.99 0 1.98 0 3 0 C3 1.32 3 2.64 3 4 C4.65 4 6.3 4 8 4 C8 4.33 8 4.66 8 5 C7.05125 4.95875 6.1025 4.9175 5.125 4.875 C1.89755144 4.65026182 1.89755144 4.65026182 0 7 C-2.3828125 7.1953125 -2.3828125 7.1953125 -5.125 7.125 C-6.49011719 7.09792969 -6.49011719 7.09792969 -7.8828125 7.0703125 C-8.58148438 7.04710938 -9.28015625 7.02390625 -10 7 C-10 6.01 -10 5.02 -10 4 C-6.7 4 -3.4 4 0 4 C0 2.68 0 1.36 0 0 Z " fill="#EFDDCE" transform="translate(114,93)"/>
<path d="M0 0 C4.29 0 8.58 0 13 0 C13 1.32 13 2.64 13 4 C9.37 4.33 5.74 4.66 2 5 C1.34 3.35 0.68 1.7 0 0 Z " fill="#5E2219" transform="translate(101,93)"/>
<path d="M0 0 C0 1.98 0 3.96 0 6 C-2.97 6 -5.94 6 -9 6 C-9.33 4.68 -9.66 3.36 -10 2 C-7.75858472 -0.24141528 -3.06492894 0 0 0 Z " fill="#666465" transform="translate(119,117)"/>
<path d="M0 0 C0.33 0 0.66 0 1 0 C1.125 6.625 1.125 6.625 0 10 C0.66 10.33 1.32 10.66 2 11 C2 8.36 2 5.72 2 3 C2.33 3 2.66 3 3 3 C3.33 6.96 3.66 10.92 4 15 C4.99 15 5.98 15 7 15 C7.33 16.32 7.66 17.64 8 19 C7.01 19 6.02 19 5 19 C5 18.01 5 17.02 5 16 C4.34 16 3.68 16 3 16 C2.67 14.68 2.34 13.36 2 12 C-0.64 12 -3.28 12 -6 12 C-5.38125 11.505 -4.7625 11.01 -4.125 10.5 C-1.25011778 7.11778563 -0.86548583 4.32742915 0 0 Z " fill="#F8E2E7" transform="translate(63,101)"/>
<path d="M0 0 C1.98 0 3.96 0 6 0 C6 2.64 6 5.28 6 8 C4.02 8 2.04 8 0 8 C0 5.36 0 2.72 0 0 Z " fill="#AF142F" transform="translate(87,104)"/>
<path d="M0 0 C1.60875 0.5878125 1.60875 0.5878125 3.25 1.1875 C3.58 3.1675 3.91 5.1475 4.25 7.1875 C2.27 8.1775 2.27 8.1775 0.25 9.1875 C-0.08 7.5375 -0.41 5.8875 -0.75 4.1875 C-3.06 3.5275 -5.37 2.8675 -7.75 2.1875 C-4.89394414 -0.7827981 -4.16493458 -0.90240249 0 0 Z " fill="#6D2D2B" transform="translate(107.75,77.8125)"/>
<path d="M0 0 C0.66 0.99 1.32 1.98 2 3 C2.99 3.33 3.98 3.66 5 4 C5 4.66 5 5.32 5 6 C4.34 6 3.68 6 3 6 C3 6.99 3 7.98 3 9 C2.34 9 1.68 9 1 9 C0.67 8.67 0.34 8.34 0 8 C-0.99 8.33 -1.98 8.66 -3 9 C-3.75 7.3125 -3.75 7.3125 -4 5 C-2.0625 2.25 -2.0625 2.25 0 0 Z " fill="#797979" transform="translate(45,114)"/>
<path d="M0 0 C1.32 0.33 2.64 0.66 4 1 C4 1.66 4 2.32 4 3 C6.97 3.33 9.94 3.66 13 4 C13 4.66 13 5.32 13 6 C11.02090602 6.02686553 9.04171029 6.04633375 7.0625 6.0625 C5.96035156 6.07410156 4.85820312 6.08570312 3.72265625 6.09765625 C1 6 1 6 0 5 C-0.04063832 3.33382885 -0.042721 1.66611905 0 0 Z " fill="#C80A34" transform="translate(162,105)"/>
<path d="M0 0 C1.4540625 0.0309375 1.4540625 0.0309375 2.9375 0.0625 C2.2775 2.7025 1.6175 5.3425 0.9375 8.0625 C-0.7125 8.3925 -2.3625 8.7225 -4.0625 9.0625 C-4.16015625 2.91015625 -4.16015625 2.91015625 -4.0625 1.0625 C-3.0625 0.0625 -3.0625 0.0625 0 0 Z " fill="#6A1610" transform="translate(71.0625,94.9375)"/>
<path d="M0 0 C2.97 0 5.94 0 9 0 C8.67 1.65 8.34 3.3 8 5 C5.1875 5.625 5.1875 5.625 2 6 C1.01 5.34 0.02 4.68 -1 4 C-0.67 2.68 -0.34 1.36 0 0 Z " fill="#494949" transform="translate(163,118)"/>
<path d="M0 0 C0.886875 0.185625 1.77375 0.37125 2.6875 0.5625 C5.88965669 0.98542636 7.90675408 0.75241117 11 0 C11.99 0 12.98 0 14 0 C14.66 0.99 15.32 1.98 16 3 C12.89704677 3.77573831 10.05538379 4.04694293 6.875 4 C3.08564502 3.79576957 3.08564502 3.79576957 0 5 C0 3.35 0 1.7 0 0 Z " fill="#F8EEE5" transform="translate(45,89)"/>
<path d="M0 0 C0.33 0.99 0.66 1.98 1 3 C0.34 3 -0.32 3 -1 3 C-1 5.31 -1 7.62 -1 10 C-1.99 10.495 -1.99 10.495 -3 11 C-3.99 10.67 -4.98 10.34 -6 10 C-5.38909774 3.52443609 -5.38909774 3.52443609 -3.5625 1.0625 C-2 0 -2 0 0 0 Z " fill="#A8A3A5" transform="translate(155,113)"/>
<path d="M0 0 C1.98 0 3.96 0 6 0 C5.67 0.66 5.34 1.32 5 2 C4.01 2 3.02 2 2 2 C2.99 2.33 3.98 2.66 5 3 C6.1875 6.0625 6.1875 6.0625 7 9 C5.02 9 3.04 9 1 9 C0.67 6.03 0.34 3.06 0 0 Z " fill="#771718" transform="translate(76,95)"/>
<path d="M0 0 C2 2 2 2 2 5 C0.68 4.67 -0.64 4.34 -2 4 C-2.33 4.99 -2.66 5.98 -3 7 C-3.99 7 -4.98 7 -6 7 C-5.79375 7.78375 -5.5875 8.5675 -5.375 9.375 C-5.25125 10.24125 -5.1275 11.1075 -5 12 C-5.66 12.66 -6.32 13.32 -7 14 C-7.61364554 6.75898264 -7.61364554 6.75898264 -4.625 3.0625 C-2 1 -2 1 0 0 Z " fill="#F3DCD8" transform="translate(90,73)"/>
<path d="M0 0 C1.65 0 3.3 0 5 0 C4.67 1.32 4.34 2.64 4 4 C3.01 3.67 2.02 3.34 1 3 C1.33 5.31 1.66 7.62 2 10 C3.32 10.33 4.64 10.66 6 11 C3.625 11.125 3.625 11.125 1 11 C-1 9 -1 9 -1.1875 5.5 C-1 2 -1 2 0 0 Z " fill="#F4D3D5" transform="translate(30,97)"/>
<path d="M0 0 C2 2 2 2 2 5 C2.66 4.01 3.32 3.02 4 2 C4.625 4.8125 4.625 4.8125 5 8 C4.01 9.485 4.01 9.485 3 11 C1.0625 10.6875 1.0625 10.6875 -1 10 C-2.31223496 6.06329512 -1.24296256 3.87511856 0 0 Z " fill="#E3E3E3" transform="translate(161,117)"/>
<path d="M0 0 C1.98 0 3.96 0 6 0 C6 1.98 6 3.96 6 6 C4.02 6 2.04 6 0 6 C0 4.02 0 2.04 0 0 Z " fill="#F6DED6" transform="translate(144,97)"/>
<path d="M0 0 C0.99 0.33 1.98 0.66 3 1 C3 1.99 3 2.98 3 4 C4.65 3.67 6.3 3.34 8 3 C7.01 3.495 7.01 3.495 6 4 C6 4.99 6 5.98 6 7 C0.06 6.67 -5.88 6.34 -12 6 C-12 5.67 -12 5.34 -12 5 C-7.38 4.67 -2.76 4.34 2 4 C2 3.34 2 2.68 2 2 C1.34 2 0.68 2 0 2 C0 1.34 0 0.68 0 0 Z " fill="#D4B8AB" transform="translate(84,87)"/>
<path d="M0 0 C1.98 0.495 1.98 0.495 4 1 C4 3.64 4 6.28 4 9 C2.35 9 0.7 9 -1 9 C-0.67 6.03 -0.34 3.06 0 0 Z " fill="#6A1C18" transform="translate(58,95)"/>
<path d="M0 0 C1.485 0.99 1.485 0.99 3 2 C3 5.01853795 2.85049285 7.77081079 2.5 10.75 C2.4071875 11.54921875 2.314375 12.3484375 2.21875 13.171875 C2.1465625 13.77515625 2.074375 14.3784375 2 15 C1.01 14.67 0.02 14.34 -1 14 C-1.02685938 11.85423363 -1.04633088 9.70837355 -1.0625 7.5625 C-1.07410156 6.36753906 -1.08570312 5.17257813 -1.09765625 3.94140625 C-1 1 -1 1 0 0 Z " fill="#F7F7F4" transform="translate(81,72)"/>
<path d="M0 0 C0.33 0 0.66 0 1 0 C1 1.65 1 3.3 1 5 C-2.3 5 -5.6 5 -9 5 C-9.33 5.99 -9.66 6.98 -10 8 C-10.33 7.34 -10.66 6.68 -11 6 C-11.66 6 -12.32 6 -13 6 C-13.66 7.32 -14.32 8.64 -15 10 C-15.33 8.02 -15.66 6.04 -16 4 C-10.72 4 -5.44 4 0 4 C0 2.68 0 1.36 0 0 Z " fill="#AC4457" transform="translate(113,100)"/>
<path d="M0 0 C0.33 0.66 0.66 1.32 1 2 C1.99 2 2.98 2 4 2 C4.33 3.32 4.66 4.64 5 6 C3.35 6.33 1.7 6.66 0 7 C0 6.01 0 5.02 0 4 C-0.99 4.33 -1.98 4.66 -3 5 C-3.66 3.68 -4.32 2.36 -5 1 C-3 0 -3 0 0 0 Z " fill="#F1EDEF" transform="translate(65,120)"/>
<path d="M0 0 C0 1.65 0 3.3 0 5 C-0.66 4.34 -1.32 3.68 -2 3 C-2.33 3.66 -2.66 4.32 -3 5 C-6.0625 5.625 -6.0625 5.625 -9 6 C-9 4.33333333 -9 2.66666667 -9 1 C-1.125 0 -1.125 0 0 0 Z " fill="#3B3E3D" transform="translate(40,117)"/>
<path d="M0 0 C5.53846154 -0.36923077 5.53846154 -0.36923077 7.875 1.5 C8.24625 1.995 8.6175 2.49 9 3 C8.67 3.66 8.34 4.32 8 5 C5.69 5 3.38 5 1 5 C1 4.01 1 3.02 1 2 C0.67 1.34 0.34 0.68 0 0 Z " fill="#6E3631" transform="translate(144,92)"/>
<path d="M0 0 C1.65 0.33 3.3 0.66 5 1 C4.67 2.65 4.34 4.3 4 6 C2.35 5.67 0.7 5.34 -1 5 C-0.67 3.35 -0.34 1.7 0 0 Z " fill="#F8D1DA" transform="translate(89,81)"/>
<path d="M0 0 C0.66 0 1.32 0 2 0 C2 0.99 2 1.98 2 3 C2.66 3 3.32 3 4 3 C4.33 2.01 4.66 1.02 5 0 C6.32 0.33 7.64 0.66 9 1 C8.67 2.32 8.34 3.64 8 5 C5.36 5 2.72 5 0 5 C0 3.35 0 1.7 0 0 Z " fill="#4F5352" transform="translate(21,118)"/>
<path d="M0 0 C0.33 0 0.66 0 1 0 C1 1.98 1 3.96 1 6 C1.66 6.33 2.32 6.66 3 7 C2.67 7.99 2.34 8.98 2 10 C1.34 10 0.68 10 0 10 C-0.21398437 9.35546875 -0.42796875 8.7109375 -0.6484375 8.046875 C-1.8473523 5.72160885 -1.8473523 5.72160885 -4.6015625 5.390625 C-5.59929687 5.34421875 -6.59703125 5.2978125 -7.625 5.25 C-9.12933594 5.16492188 -9.12933594 5.16492188 -10.6640625 5.078125 C-11.43492188 5.05234375 -12.20578125 5.0265625 -13 5 C-13 4.67 -13 4.34 -13 4 C-8.71 4 -4.42 4 0 4 C0 2.68 0 1.36 0 0 Z " fill="#DBAFBA" transform="translate(114,108)"/>
<path d="M0 0 C4.60976 1.31707429 8.18857342 3.07495169 12 6 C12.33 6.99 12.66 7.98 13 9 C8.02790438 7.23570801 3.56561939 4.6060834 -1 2 C-0.67 1.34 -0.34 0.68 0 0 Z " fill="#9C9D9C" transform="translate(96,67)"/>
<path d="M0 0 C0.66 0 1.32 0 2 0 C2 0.99 2 1.98 2 3 C2.33 2.34 2.66 1.68 3 1 C4.32 1.33 5.64 1.66 7 2 C6.67 3.32 6.34 4.64 6 6 C4.02 6 2.04 6 0 6 C0 4.02 0 2.04 0 0 Z " fill="#515352" transform="translate(66,117)"/>
<path d="M0 0 C0 1.65 0 3.3 0 5 C-1.32 5.33 -2.64 5.66 -4 6 C-4.66 4.02 -5.32 2.04 -6 0 C-2.25 -1.125 -2.25 -1.125 0 0 Z " fill="#8B8E8D" transform="translate(108,117)"/>
<path d="M0 0 C1.32 0.99 2.64 1.98 4 3 C3.34 3 2.68 3 2 3 C2.33 5.31 2.66 7.62 3 10 C2.01 10.33 1.02 10.66 0 11 C-0.99 10.34 -1.98 9.68 -3 9 C-2.34 8.01 -1.68 7.02 -1 6 C-1 4.68 -1 3.36 -1 2 C-0.67 1.34 -0.34 0.68 0 0 Z " fill="#CACECD" transform="translate(39,113)"/>
<path d="M0 0 C0.33 0.99 0.66 1.98 1 3 C1.66 2.67 2.32 2.34 3 2 C4.99960012 1.960008 7.00047242 1.95653201 9 2 C9 1.34 9 0.68 9 0 C9.99 0.33 10.98 0.66 12 1 C11.67 1.99 11.34 2.98 11 4 C7.04 4 3.08 4 -1 4 C-0.67 2.68 -0.34 1.36 0 0 Z " fill="#C70832" transform="translate(47,107)"/>
<path d="M0 0 C-0.33 1.32 -0.66 2.64 -1 4 C-2.98 4.33 -4.96 4.66 -7 5 C-8 3 -8 3 -8 2 C-8.33 1.34 -8.66 0.68 -9 0 C-5.62182575 -0.84454356 -3.32534757 -1.10844919 0 0 Z " fill="#FDF9FC" transform="translate(65,113)"/>
<path d="M0 0 C1.98 0 3.96 0 6 0 C6 3.3 6 6.6 6 10 C5.67 10 5.34 10 5 10 C4.67 7.69 4.34 5.38 4 3 C3.01 2.67 2.02 2.34 1 2 C1 4.31 1 6.62 1 9 C0.67 9 0.34 9 0 9 C0 6.03 0 3.06 0 0 Z " fill="#552015" transform="translate(161,93)"/>
<path d="M0 0 C1.98 0.495 1.98 0.495 4 1 C3.67 2.65 3.34 4.3 3 6 C1.68 6.33 0.36 6.66 -1 7 C-0.67 6.34 -0.34 5.68 0 5 C-0.33 4.67 -0.66 4.34 -1 4 C-0.5625 1.9375 -0.5625 1.9375 0 0 Z " fill="#8C8F8E" transform="translate(92,116)"/>
<path d="M0 0 C1.65 0 3.3 0 5 0 C4.67 1.65 4.34 3.3 4 5 C2.35 4.67 0.7 4.34 -1 4 C-0.67 2.68 -0.34 1.36 0 0 Z " fill="#FADDD7" transform="translate(103,82)"/>
<path d="M0 0 C1.98 0.66 3.96 1.32 6 2 C6 2.66 6 3.32 6 4 C4.68 4.33 3.36 4.66 2 5 C2 6.32 2 7.64 2 9 C1.01 8.67 0.02 8.34 -1 8 C-0.67 5.36 -0.34 2.72 0 0 Z " fill="#E9E8E9" transform="translate(108,114)"/>
<path d="M0 0 C2 2 2 2 2 6 C1.401875 5.814375 0.80375 5.62875 0.1875 5.4375 C-2.16408762 4.77906313 -2.16408762 4.77906313 -5 6 C-5.33 5.01 -5.66 4.02 -6 3 C-4 2 -2 1 0 0 Z " fill="#333837" transform="translate(146,117)"/>
<path d="M0 0 C1.65 0 3.3 0 5 0 C5 1.65 5 3.3 5 5 C3.35 5 1.7 5 0 5 C0 3.35 0 1.7 0 0 Z " fill="#BB102F" transform="translate(23,103)"/>
<path d="M0 0 C-2.39763185 2.39763185 -3.33273498 2.34280586 -6.625 2.625 C-7.44226563 2.69976562 -8.25953125 2.77453125 -9.1015625 2.8515625 C-9.72804688 2.90054688 -10.35453125 2.94953125 -11 3 C-11.33 3.99 -11.66 4.98 -12 6 C-12.33 5.34 -12.66 4.68 -13 4 C-9.41420832 -0.98892755 -5.61771415 -0.43213186 0 0 Z " fill="#7C4B44" transform="translate(36,92)"/>
<path d="M0 0 C0.66 0 1.32 0 2 0 C2 1.32 2 2.64 2 4 C3.32 4 4.64 4 6 4 C6 4.66 6 5.32 6 6 C4.1875 6.6875 4.1875 6.6875 2 7 C0.375 5.5625 0.375 5.5625 -1 4 C-1.66 4 -2.32 4 -3 4 C-3 3.34 -3 2.68 -3 2 C-2.01 2 -1.02 2 0 2 C0 1.34 0 0.68 0 0 Z " fill="#F7CFD9" transform="translate(98,86)"/>
<path d="M0 0 C0.99 0.33 1.98 0.66 3 1 C3.33 2.65 3.66 4.3 4 6 C2.35 5.67 0.7 5.34 -1 5 C-0.67 3.35 -0.34 1.7 0 0 Z " fill="#D50333" transform="translate(100,105)"/>
<path d="M0 0 C1.32 0.66 2.64 1.32 4 2 C3 5 3 5 1 6 C1 6.66 1 7.32 1 8 C0.01 8 -0.98 8 -2 8 C-1.125 1.125 -1.125 1.125 0 0 Z " fill="#FBF9F6" transform="translate(96,89)"/>
<path d="M0 0 C1.32 0 2.64 0 4 0 C3.67 1.65 3.34 3.3 3 5 C1.68 4.67 0.36 4.34 -1 4 C-0.67 2.68 -0.34 1.36 0 0 Z " fill="#7D7C7D" transform="translate(110,118)"/>
<path d="M0 0 C2.64 0 5.28 0 8 0 C8 0.99 8 1.98 8 3 C5.36 3 2.72 3 0 3 C0 2.01 0 1.02 0 0 Z " fill="#C70C37" transform="translate(29,109)"/>
<path d="M0 0 C0.99 0 1.98 0 3 0 C2.67 1.65 2.34 3.3 2 5 C2.66 5.33 3.32 5.66 4 6 C2.35 6 0.7 6 -1 6 C-1.042721 4.33388095 -1.04063832 2.66617115 -1 1 C-0.67 0.67 -0.34 0.34 0 0 Z " fill="#631B11" transform="translate(24,97)"/>
<path d="M0 0 C0.99 0.66 1.98 1.32 3 2 C2.34 2.66 1.68 3.32 1 4 C0.67 4.66 0.34 5.32 0 6 C-2.31 5.01 -4.62 4.02 -7 3 C-4.66785852 1.79371992 -2.50357861 0.8345262 0 0 Z " fill="#F6ECE4" transform="translate(153,89)"/>
<path d="M0 0 C1.32 0 2.64 0 4 0 C4 1.98 4 3.96 4 6 C2.68 5.67 1.36 5.34 0 5 C0 3.35 0 1.7 0 0 Z " fill="#4E5150" transform="translate(157,117)"/>
<path d="M0 0 C0.2475 0.556875 0.495 1.11375 0.75 1.6875 C2.21606015 4.39971127 4.02989471 6.63587365 6 9 C1.125 8.125 1.125 8.125 0 7 C-0.04092937 4.66702567 -0.04241723 2.33294775 0 0 Z " fill="#F6C7D1" transform="translate(49,99)"/>
<path d="M0 0 C1.98 0 3.96 0 6 0 C5.34 2.31 4.68 4.62 4 7 C3.34 6.01 2.68 5.02 2 4 C1.01 4.495 1.01 4.495 0 5 C0 3.35 0 1.7 0 0 Z " fill="#612118" transform="translate(68,95)"/>
<path d="M0 0 C1.98 0.495 1.98 0.495 4 1 C3.67 1.33 3.34 1.66 3 2 C2.76636119 3.84891946 2.58696365 5.70488031 2.4375 7.5625 C2.35371094 8.57441406 2.26992188 9.58632812 2.18359375 10.62890625 C2.12300781 11.41136719 2.06242187 12.19382812 2 13 C1.67 13 1.34 13 1 13 C0.93941406 12.37351562 0.87882812 11.74703125 0.81640625 11.1015625 C0.73261719 10.28429687 0.64882813 9.46703125 0.5625 8.625 C0.48128906 7.81289062 0.40007813 7.00078125 0.31640625 6.1640625 C0.10909886 3.95727195 0.10909886 3.95727195 -1 2 C-0.67 1.34 -0.34 0.68 0 0 Z " fill="#ECD1D2" transform="translate(41,95)"/>
<path d="M0 0 C2.97 0.495 2.97 0.495 6 1 C6.33 1.99 6.66 2.98 7 4 C4.6875 4.6875 4.6875 4.6875 2 5 C0.1875 3.5625 0.1875 3.5625 -1 2 C-0.67 1.34 -0.34 0.68 0 0 Z " fill="#E9D9D9" transform="translate(105,74)"/>
<path d="M0 0 C1.32 0 2.64 0 4 0 C4 1.65 4 3.3 4 5 C2.68 5 1.36 5 0 5 C0 3.35 0 1.7 0 0 Z " fill="#575C5A" transform="translate(120,118)"/>
<path d="M0 0 C0 1.65 0 3.3 0 5 C-1.32 5.33 -2.64 5.66 -4 6 C-4 4.35 -4 2.7 -4 1 C-1 0 -1 0 0 0 Z " fill="#474A49" transform="translate(57,117)"/>
<path d="M0 0 C1.32 0 2.64 0 4 0 C4 1.65 4 3.3 4 5 C2.68 5 1.36 5 0 5 C0 3.35 0 1.7 0 0 Z " fill="#C7082F" transform="translate(67,106)"/>
<path d="M0 0 C0.66 0 1.32 0 2 0 C2 1.98 2 3.96 2 6 C0.68 6 -0.64 6 -2 6 C-2 4.68 -2 3.36 -2 2 C-1.34 2 -0.68 2 0 2 C0 1.34 0 0.68 0 0 Z " fill="#582012" transform="translate(152,95)"/>
<path d="M0 0 C2.0625 0.4375 2.0625 0.4375 4 1 C4.33 2.32 4.66 3.64 5 5 C3.68 5 2.36 5 1 5 C1 4.01 1 3.02 1 2 C0.34 1.67 -0.32 1.34 -1 1 C-0.67 0.67 -0.34 0.34 0 0 Z " fill="#FAF7F4" transform="translate(134,90)"/>
<path d="M0 0 C0.33 1.32 0.66 2.64 1 4 C0.01 4 -0.98 4 -2 4 C-1.67 4.99 -1.34 5.98 -1 7 C-1.99 7 -2.98 7 -4 7 C-4 5.35 -4 3.7 -4 2 C-2.68 1.34 -1.36 0.68 0 0 Z " fill="#858786" transform="translate(142,116)"/>
<path d="M0 0 C0.99 0 1.98 0 3 0 C3 1.65 3 3.3 3 5 C1.68 5 0.36 5 -1 5 C-0.67 3.35 -0.34 1.7 0 0 Z " fill="#515151" transform="translate(174,118)"/>
<path d="M0 0 C1.32 0.33 2.64 0.66 4 1 C3.43628586 4.26954202 2.50037734 5.82575883 0 8 C0 5.36 0 2.72 0 0 Z " fill="#5A1A0F" transform="translate(138,96)"/>
<path d="M0 0 C1.54571278 2.31856917 2.79618552 4.50638429 4 7 C3.01 8.32 2.02 9.64 1 11 C0.4254048 7.26513121 0 3.78706732 0 0 Z " fill="#E9DED6" transform="translate(111,79)"/>
<path d="M0 0 C1.32 0 2.64 0 4 0 C4 1.98 4 3.96 4 6 C3.01 5.67 2.02 5.34 1 5 C0.67 3.35 0.34 1.7 0 0 Z " fill="#742A24" transform="translate(84,80)"/>
<path d="M0 0 C0.33 0.66 0.66 1.32 1 2 C1.99 2 2.98 2 4 2 C4 2.66 4 3.32 4 4 C2.68 4 1.36 4 0 4 C-0.33 4.66 -0.66 5.32 -1 6 C-1.66 4.68 -2.32 3.36 -3 2 C-2.01 1.34 -1.02 0.68 0 0 Z " fill="#F4EFF1" transform="translate(95,121)"/>
<path d="M0 0 C0.99 0.33 1.98 0.66 3 1 C3 2.98 3 4.96 3 7 C1.35 5.35 -0.3 3.7 -2 2 C-1.34 2 -0.68 2 0 2 C0 1.34 0 0.68 0 0 Z " fill="#F7FCF7" transform="translate(52,100)"/>
<path d="M0 0 C0 1.98 0 3.96 0 6 C-1.65 6 -3.3 6 -5 6 C-4.67 4.35 -4.34 2.7 -4 1 C-1 0 -1 0 0 0 Z " fill="#751918" transform="translate(128,98)"/>
<path d="M0 0 C0.99 0 1.98 0 3 0 C3 1.32 3 2.64 3 4 C4.65 4 6.3 4 8 4 C8 4.33 8 4.66 8 5 C2.25 5.125 2.25 5.125 0 4 C0 2.68 0 1.36 0 0 Z " fill="#D0B1AA" transform="translate(114,93)"/>
<path d="M0 0 C0.33 0.66 0.66 1.32 1 2 C2.65 2 4.3 2 6 2 C6.33 2.66 6.66 3.32 7 4 C5.68 4 4.36 4 3 4 C2.34 4.66 1.68 5.32 1 6 C0.01 4.35 -0.98 2.7 -2 1 C-1.34 0.67 -0.68 0.34 0 0 Z " fill="#F2E3E0" transform="translate(61,92)"/>
<path d="M0 0 C0.99 0.33 1.98 0.66 3 1 C3 1.99 3 2.98 3 4 C3.99 4.33 4.98 4.66 6 5 C4.02 5 2.04 5 0 5 C0 3.35 0 1.7 0 0 Z " fill="#AC1837" transform="translate(150,107)"/>
<path d="M0 0 C0.66 0 1.32 0 2 0 C2 1.98 2 3.96 2 6 C1.01 6 0.02 6 -1 6 C-1.042721 4.33388095 -1.04063832 2.66617115 -1 1 C-0.67 0.67 -0.34 0.34 0 0 Z " fill="#CE0730" transform="translate(125,105)"/>
<path d="M0 0 C1.32 0 2.64 0 4 0 C4 1.98 4 3.96 4 6 C3.34 6 2.68 6 2 6 C1.34 4.02 0.68 2.04 0 0 Z " fill="#CE082D" transform="translate(151,105)"/>
<path d="M0 0 C0.99 0.33 1.98 0.66 3 1 C2.01 1.33 1.02 1.66 0 2 C-1.21869929 4.50447516 -1.21869929 4.50447516 -2 7 C-2.33 7 -2.66 7 -3 7 C-3.1875 4.625 -3.1875 4.625 -3 2 C-2.01 1.34 -1.02 0.68 0 0 Z " fill="#FAECE7" transform="translate(24,92)"/>
<path d="M0 0 C1.98 0 3.96 0 6 0 C5.67 0.66 5.34 1.32 5 2 C4.01 2 3.02 2 2 2 C2.33 3.65 2.66 5.3 3 7 C2.34 7 1.68 7 1 7 C0.67 4.69 0.34 2.38 0 0 Z " fill="#5F140D" transform="translate(76,95)"/>
<path d="M0 0 C2 2 2 2 2 5 C0.02 5 -1.96 5 -4 5 C-2.25 1.125 -2.25 1.125 0 0 Z " fill="#F9E2E9" transform="translate(90,73)"/>
</svg>
