<?xml version="1.0" encoding="UTF-8"?>
<svg version="1.1" xmlns="http://www.w3.org/2000/svg" width="3600" height="1250">
<path d="M0 0 C3.7038954 3.10093569 5.31702439 4.84748521 6.5625 9.5625 C6.73908457 14.77174479 5.30700127 18.39856938 1.87309265 22.32424927 C-0.42226312 24.34671354 -2.24743344 25.29431904 -5.09448242 26.37451172 C-6.05368088 26.74454315 -7.01287933 27.11457458 -8.00114441 27.49581909 C-9.04619644 27.88649567 -10.09124847 28.27717224 -11.16796875 28.6796875 C-12.27163284 29.10218781 -13.37529694 29.52468811 -14.5124054 29.95999146 C-17.5373144 31.11593428 -20.56561857 32.26239556 -23.59555054 33.40509033 C-26.81290062 34.62129558 -30.02542451 35.85010972 -33.23828125 37.078125 C-37.92448513 38.86824811 -42.61194515 40.65500166 -47.30111122 42.43735123 C-58.98534159 46.87910336 -70.64511397 51.38370885 -82.30337524 55.89312744 C-88.22195896 58.18166501 -94.1423261 60.46557998 -100.0625 62.75 C-102.43750839 63.66664493 -104.8125084 64.58331158 -107.1875 65.5 C-178.43750015 93.00000006 -178.43750015 93.00000006 -181.99972534 94.37489319 C-184.37564159 95.29191403 -186.75155712 96.20893674 -189.12747192 97.1259613 C-195.05094746 99.41222436 -200.97443534 101.69845541 -206.89794922 103.98461914 C-218.37526656 108.41429713 -229.85242009 112.84439864 -241.32915878 117.27557564 C-285.22344765 134.22307029 -285.22344765 134.22307029 -305.63299561 142.07913208 C-307.3170396 142.72741237 -309.0010015 143.37590594 -310.68487549 144.02462769 C-312.95371917 144.89860716 -315.22289632 145.77171448 -317.4921875 146.64453125 C-318.14858215 146.89753998 -318.80497681 147.15054871 -319.48126221 147.41122437 C-330.27191038 151.55727303 -336.05072533 150.05097481 -346.625 145.8125 C-347.70201172 145.41095703 -348.77902344 145.00941406 -349.88867188 144.59570312 C-360.41203048 140.4207789 -368.53205339 134.31823995 -373.375 123.90234375 C-376.18951919 115.93959987 -376.4829712 109.31093361 -376.05859375 100.96484375 C-376.03667969 100.15660156 -376.01476562 99.34835938 -375.9921875 98.515625 C-375.94167236 97.42942871 -375.94167236 97.42942871 -375.89013672 96.32128906 C-376.53093004 93.17880896 -377.72534975 92.11172805 -380.3125 90.25 C-382.97216656 89.85929196 -385.20736895 89.71232741 -387.86328125 89.75390625 C-388.61722168 89.7511821 -389.37116211 89.74845795 -390.14794922 89.74565125 C-392.64097738 89.74509697 -395.13224218 89.7768972 -397.625 89.8125 C-398.48419037 89.8189856 -399.34338074 89.82547119 -400.22860718 89.83215332 C-436.20653679 90.10942707 -471.70997675 93.29391146 -506.40551758 103.07666016 C-522.85053326 107.6906041 -539.03546078 110.65170698 -555.7578125 105.49609375 C-560.05806314 104.17603528 -560.05806314 104.17603528 -564.35742188 105.0559082 C-581.99194107 115.45350457 -600.19261653 126.97344371 -610.3125 145.25 C-610.99015555 146.45613952 -611.66858523 147.66184433 -612.34765625 148.8671875 C-613.46653602 150.85922932 -614.58448497 152.85177673 -615.70043945 154.84545898 C-627.2914689 175.51236878 -637.86854186 190.68157055 -658.96484375 202.265625 C-675.78512804 211.51485112 -687.35551883 225.45894954 -698.93457031 240.47363281 C-700.26435463 242.18793308 -701.60891367 243.88914258 -702.9609375 245.5859375 C-708.30534643 252.29937211 -713.50809989 259.11147542 -718.625 266 C-719.48702026 267.15181763 -719.48702026 267.15181763 -720.36645508 268.3269043 C-722.05193261 270.61093523 -723.6916557 272.91970338 -725.3125 275.25 C-725.90208496 276.08208984 -726.49166992 276.91417969 -727.09912109 277.77148438 C-730.73555286 283.13226121 -730.73555286 283.13226121 -731.3125 289.3828125 C-730.9825 290.65898437 -730.6525 291.93515625 -730.3125 293.25 C-730.15910156 293.89678711 -730.00570312 294.54357422 -729.84765625 295.20996094 C-729.37186216 297.19276401 -728.84634488 299.1571107 -728.3125 301.125 C-726.74474741 307.16825307 -725.5603552 312.98896218 -725.3125 319.25 C-725.27253906 320.00925781 -725.23257813 320.76851563 -725.19140625 321.55078125 C-724.64686423 341.12226222 -730.55432069 359.69914595 -739.5390625 376.83984375 C-743.99995939 385.41773578 -744.87475988 391.61606406 -743.3125 401.25 C-742.9825 402.24 -742.6525 403.23 -742.3125 404.25 C-741.56532715 403.91605225 -740.8181543 403.58210449 -740.04833984 403.23803711 C-717.53558238 393.1967498 -694.88437828 383.49467479 -672.19720459 373.85494995 C-670.43669769 373.10690598 -670.43669769 373.10690598 -668.640625 372.34375 C-666.86827484 371.59075119 -666.86827484 371.59075119 -665.06011963 370.82254028 C-652.17459056 365.34560431 -639.30511716 359.83135909 -626.4375 354.3125 C-625.2809491 353.81654327 -624.12439819 353.32058655 -622.93280029 352.80960083 C-617.06995593 350.29546186 -611.20728362 347.78092212 -605.34472656 345.26611328 C-594.83138829 340.75656642 -584.3163374 336.25101586 -573.80142212 331.74514771 C-570.32938866 330.25723749 -566.85743046 328.76915184 -563.38549805 327.28100586 C-552.58043277 322.64978825 -541.77501485 318.01939817 -530.96835327 313.39190674 C-526.55403019 311.5016532 -522.13988417 309.61098636 -517.72577477 307.72023392 C-514.74205329 306.44221502 -511.75820547 305.16449246 -508.77416992 303.88720703 C-493.59841198 297.39130255 -478.44325634 290.85008664 -463.3125 284.25 C-463.3125 281.13139842 -463.83094599 279.70910428 -465.0625 276.8984375 C-465.4234375 276.04636719 -465.784375 275.19429688 -466.15625 274.31640625 C-466.91859195 272.54190083 -467.68925248 270.77094285 -468.46875 269.00390625 C-470.83199422 263.3743209 -472.44043566 258.37593403 -471.3125 252.25 C-468.61470449 246.13644728 -464.40634072 244.38678884 -458.5625 241.9375 C-457.61117188 241.52201904 -456.65984375 241.10653809 -455.6796875 240.6784668 C-452.86855828 239.45792481 -450.05026396 238.25590068 -447.2277832 237.06188965 C-445.2274309 236.21393916 -443.22964291 235.36018128 -441.23242188 234.50488281 C-433.10332849 231.02399232 -424.96499447 227.56534334 -416.8203125 224.12109375 C-405.4028572 219.29279508 -393.99735433 214.43662747 -382.59341431 209.57650757 C-376.85548926 207.13116077 -371.11717001 204.68673933 -365.37890625 202.2421875 C-363.64815102 201.50481606 -363.64815102 201.50481606 -361.88243103 200.75254822 C-355.98686891 198.2408866 -350.09106876 195.7297858 -344.19482422 193.21972656 C-343.02080551 192.71993286 -341.8467868 192.22013916 -340.63719177 191.7052002 C-338.27861951 190.70130116 -335.91994693 189.69763777 -333.56117249 188.69421387 C-327.8186695 186.25085714 -322.07814782 183.80306547 -316.34204102 181.34472656 C-307.2175989 177.43792129 -298.09725415 173.53470436 -288.88276672 169.84405518 C-285.55050229 168.50876233 -282.22714615 167.15209445 -278.90414429 165.79394531 C-276.70174062 164.90594163 -274.48760334 164.05425374 -272.27075195 163.203125 C-265.72302608 160.77244226 -265.72302608 160.77244226 -260.84960938 156.04760742 C-260.06923424 153.76109873 -259.64119454 151.63882226 -259.3125 149.25 C-255.63386927 138.41549269 -250.46289138 129.58869761 -240 124.1875 C-225.80289265 117.76336608 -211.4431988 122.01455618 -197.3125 126.25 C-194.70467342 127.02167944 -192.09660734 127.7925138 -189.48828125 128.5625 C-188.78945831 128.76906723 -188.09063538 128.97563446 -187.37063599 129.1884613 C-180.059191 131.34947214 -172.74474193 133.49999379 -165.42510986 135.63311768 C-163.37610401 136.23142762 -161.32842194 136.83411572 -159.28076172 137.43701172 C-155.61306322 138.51251394 -151.932963 139.54042633 -148.25 140.5625 C-146.62964844 141.04275635 -146.62964844 141.04275635 -144.9765625 141.53271484 C-138.07376389 143.39765456 -133.78272435 143.2851292 -127.3125 140.25 C-116.01968522 135.56664808 -105.45196915 132.77891455 -93.29296875 136.06640625 C-83.37924831 140.43697118 -77.91448095 148.91471273 -73.73046875 158.5390625 C-72.43657566 161.92528408 -71.30560293 165.3131917 -70.22094727 168.76928711 C-65.27002046 184.51735871 -56.64974334 197.49285611 -47.6171875 211.203125 C-44.55062747 215.86429625 -41.5796221 220.57990678 -38.625 225.3125 C-34.06690423 232.59234196 -29.33383064 239.7468461 -24.54727173 246.87738037 C2.6875 287.47890688 2.6875 287.47890688 2.6875 299.25 C30.97420919 287.82492479 59.23129235 276.32861008 87.47167969 264.78955078 C97.60519588 260.64910432 107.74006092 256.51196201 117.875 252.375 C118.8769339 251.96599457 119.8788678 251.55698914 120.91116333 251.1355896 C137.16702138 244.49988451 153.42659573 237.87332835 169.6875 231.25 C186.14135691 224.54782036 202.59452827 217.84397229 219.04418945 211.13150024 C222.08952795 209.88946718 225.13552131 208.64905222 228.18164062 207.40893555 C236.90063515 203.85672783 245.61337671 200.29217358 254.29689026 196.65393066 C257.90998457 195.14012031 261.52618226 193.63379637 265.1423645 192.12738037 C267.60697642 191.09619093 270.06604277 190.05254092 272.52514648 189.00830078 C274.01649445 188.38639671 275.50809739 187.76510358 277 187.14453125 C277.97629112 186.72266792 277.97629112 186.72266792 278.9723053 186.2922821 C284.81925099 183.88857393 290.88784438 182.29917356 297 184.375 C301.45631948 187.4840601 303.33281349 189.78396243 304.625 195.125 C304.93999803 199.52668293 304.04862915 202.45788348 301.6875 206.25 C295.08199891 211.09293596 287.64054654 213.9028302 280.07849121 216.89193726 C276.8214242 218.17960995 273.57146177 219.48483154 270.32070923 220.78834534 C268.55721693 221.49517331 266.79335294 222.20107458 265.02914429 222.90611267 C255.3382182 226.78041681 245.67740876 230.72780325 236.01730347 234.67819214 C231.85433045 236.38039967 227.69052322 238.08056179 223.52674866 239.7808075 C220.35303389 241.07680817 217.17943644 242.37309577 214.00585938 243.66943359 C204.75106582 247.44957309 195.49514493 251.22695044 186.23928833 255.00448608 C181.13214696 257.08884285 176.025053 259.17331579 170.91796875 261.2578125 C169.90625107 261.67075058 168.89453339 262.08368866 167.85215759 262.50914001 C161.77740639 264.98863834 155.70280554 267.46850462 149.62832642 269.94866943 C126.17864879 279.52297934 102.72536614 289.08837195 79.26763916 298.64294434 C63.13433115 305.2143534 47.00319969 311.7910633 30.875 318.375 C29.36986343 318.98942963 29.36986343 318.98942963 27.83432007 319.61627197 C20.78527424 322.49392218 13.73636983 325.3719187 6.6875 328.25 C-1.37490069 331.54190995 -9.43736769 334.83365736 -17.5 338.125 C-19.00453232 338.73918793 -19.00453232 338.73918793 -20.53945923 339.36578369 C-37.93381932 346.4662121 -55.33257175 353.55583208 -72.73236084 360.64294434 C-88.86566885 367.2143534 -104.99680031 373.7910633 -121.125 380.375 C-122.63013657 380.98942963 -122.63013657 380.98942963 -124.16567993 381.61627197 C-131.21472576 384.49392218 -138.26363017 387.3719187 -145.3125 390.25 C-153.37490069 393.54190995 -161.43736769 396.83365736 -169.5 400.125 C-171.00453232 400.73918793 -171.00453232 400.73918793 -172.53945923 401.36578369 C-189.93381932 408.4662121 -207.33257175 415.55583208 -224.73236084 422.64294434 C-240.86566885 429.2143534 -256.99680031 435.7910633 -273.125 442.375 C-274.63013657 442.98942963 -274.63013657 442.98942963 -276.16567993 443.61627197 C-283.21472576 446.49392218 -290.26363017 449.3719187 -297.3125 452.25 C-305.37490069 455.54190995 -313.43737817 458.83363169 -321.5 462.125 C-322.50135986 462.53379395 -323.50271973 462.94258789 -324.53442383 463.36376953 C-336.30502684 468.16875283 -348.07712851 472.97003649 -359.8515625 477.765625 C-360.98768982 478.22839844 -362.12381714 478.69117188 -363.29437256 479.16796875 C-368.99530864 481.48996308 -374.69658884 483.81110683 -380.3984375 486.13085938 C-391.40785686 490.6114905 -402.41019065 495.1082963 -413.3984375 499.640625 C-416.45893485 500.9008903 -419.51954809 502.16087386 -422.58016968 503.4208374 C-425.4389171 504.5998089 -428.29527855 505.78443143 -431.15161133 506.96923828 C-432.86528337 507.67508096 -434.57906264 508.38066339 -436.29296875 509.0859375 C-437.06832977 509.40975403 -437.8436908 509.73357056 -438.64254761 510.06719971 C-441.68190451 511.31221249 -443.99452959 512.25 -447.3125 512.25 C-445.89985645 514.16974636 -444.48258929 516.08577306 -443.0625 518 C-442.46888672 518.80824219 -442.46888672 518.80824219 -441.86328125 519.6328125 C-437.55334954 525.42649119 -433.71752963 530.01759909 -426.3125 531.25 C-423.53900031 531.17179457 -420.82363879 531.03471286 -418.0625 530.8125 C-405.21283209 529.77978808 -395.32083565 531.91110957 -384.5 539.125 C-376.93878677 546.47017856 -374.13688354 554.4142999 -373.36132812 564.78735352 C-373.27253824 571.0838884 -374.35671441 577.19112467 -375.4375 583.375 C-375.66705275 584.74567671 -375.89654443 586.11636364 -376.12597656 587.48706055 C-380.13144371 610.88788742 -380.13144371 610.88788742 -384.3125 619.25 C-383.7541748 619.00056641 -383.19584961 618.75113281 -382.62060547 618.49414062 C-364.90847983 610.60003862 -347.05993184 603.05294337 -329.17871094 595.55235291 C-319.09204911 591.32056989 -309.01441239 587.06743584 -298.9375 582.8125 C-297.51733582 582.21296509 -297.51733582 582.21296509 -296.06848145 581.60131836 C-281.9898018 575.65726618 -267.9215175 569.68910716 -253.85928345 563.70626831 C-240.62311602 558.07543251 -227.37720567 552.46798276 -214.125 546.875 C-212.72201157 546.28286713 -212.72201157 546.28286713 -211.29067993 545.67877197 C-203.67685147 542.46558164 -196.06249558 539.25364186 -188.44812012 536.04174805 C-181.79850169 533.23674593 -175.14908945 530.43125581 -168.5 527.625 C-167.56427155 527.23008362 -166.62854309 526.83516724 -165.66445923 526.42828369 C-152.53899023 520.88794594 -139.42217444 515.32760021 -126.3125 509.75 C-112.25879555 503.7707558 -98.19593596 497.8135833 -84.125 491.875 C-82.71852203 491.28137161 -82.71852203 491.28137161 -81.28363037 490.67575073 C-72.75558059 487.07657691 -64.22690834 483.47887946 -55.69775391 479.88232422 C-50.11073067 477.52636049 -44.52396602 475.16978469 -38.9375 472.8125 C-38.01305084 472.4224176 -37.08860168 472.03233521 -36.13613892 471.63043213 C-20.70963498 465.11954274 -5.2997121 458.5701611 10.10467529 452.00714111 C27.2092966 444.72027739 44.33160218 437.47588413 61.46289062 430.25195312 C62.36785278 429.87031509 63.27281494 429.48867706 64.2052002 429.09547424 C65.88112783 428.3888113 67.55714572 427.68236232 69.23327637 426.97618103 C69.98387329 426.65976151 70.73447021 426.34334198 71.5078125 426.01733398 C72.21386627 425.72016479 72.91992004 425.42299561 73.64736938 425.11682129 C75.00317611 424.54075909 76.35575944 423.95704829 77.70492554 423.36560059 C82.6448053 421.20113483 86.34864121 420.5160326 91.6875 421.25 C94.96500352 422.63383482 96.38061604 423.83729398 98.5 426.6875 C101.41563715 430.10296066 104.42878157 431.84416852 108.6875 433.25 C111.8236537 433.11817731 114.14153709 432.8073352 117.125 432.0625 C117.94685791 431.87905029 118.76871582 431.69560059 119.61547852 431.5065918 C129.99200615 429.10443726 140.26948373 426.20031967 150.52709961 423.3371582 C151.22689941 423.14190552 151.92669922 422.94665283 152.64770508 422.7454834 C154.56842881 422.20800782 156.48822467 421.66721958 158.40795898 421.1262207 C169.15256565 418.25549984 178.98064562 418.24910388 189.03515625 423.46875 C197.45847572 428.67011365 204.09749673 435.60602545 207.0546875 445.18359375 C209.43662757 456.72571076 207.35356241 466.19762076 202.74462891 476.79980469 C201.54777565 479.57385072 200.40419611 482.36719261 199.26171875 485.1640625 C181.60758734 528.04723246 161.65720869 562.02206035 126.60253906 592.5690918 C123.75785906 595.06598392 120.96650724 597.61793763 118.1875 600.1875 C117.62780518 600.70401123 117.06811035 601.22052246 116.49145508 601.75268555 C112.73127679 605.23919888 109.08831185 608.82075144 105.4921875 612.4765625 C103.72148577 614.21660272 101.89058641 615.82932483 100 617.4375 C91.96747101 624.35880957 84.38793554 632.02544167 77.54296875 640.12109375 C75.58658822 642.36578299 73.54263051 644.51567982 71.48925781 646.67138672 C55.18674609 663.91265226 43.04217436 681.73981051 43.4375 706.25 C44.19744985 721.72257894 49.1866553 735.40077833 57.171875 748.59375 C60.15787752 753.8269503 60.76287896 758.23643377 60.6875 764.25 C61.3587793 763.94932617 62.03005859 763.64865234 62.72167969 763.33886719 C76.45043263 757.19644576 90.20711845 751.13453823 104.04003906 745.22973633 C114.93517349 740.57817076 125.81273239 735.88646783 136.6875 731.1875 C138.5819475 730.36905376 140.47639739 729.55061304 142.37084961 728.73217773 C146.22385892 727.06752938 150.07679133 725.40270317 153.9296875 723.73779297 C162.27032919 720.13380113 170.61199544 716.5321822 178.95361328 712.93045044 C183.53162021 710.95373712 188.10955642 708.97686004 192.6875 707 C194.520833 706.20833255 196.35416633 705.41666589 198.1875 704.625 C199.095 704.233125 200.0025 703.84125 200.9375 703.4375 C209.18749983 699.87500007 209.18749983 699.87500007 211.93701172 698.68771362 C213.77197535 697.89534111 215.60693628 697.10296236 217.44189453 696.31057739 C222.00026234 694.34215914 226.55867561 692.37384629 231.1171875 690.40576172 C239.66471853 686.71533182 248.21178514 683.02383694 256.75732422 679.32879639 C260.76870894 677.59437095 264.78034133 675.86051877 268.79199219 674.12670898 C270.69380844 673.30456633 272.59550495 672.48214662 274.49707031 671.65942383 C279.51611768 669.48794511 284.53700285 667.32089041 289.56219482 665.16366577 C290.92111841 664.57946639 292.27930713 663.99355271 293.63653564 663.40542603 C295.31015158 662.68048699 296.98697929 661.96297507 298.6640625 661.24609375 C299.54658691 660.86638428 300.42911133 660.4866748 301.33837891 660.09545898 C305.13501531 658.72903289 307.68137061 658.62835923 311.6875 659.25 C315.64065805 661.33846086 318.32709111 663.46660175 320.6875 667.25 C321.19140625 669.80078125 321.19140625 669.80078125 321.25 672.5625 C321.29253906 673.46613281 321.33507813 674.36976563 321.37890625 675.30078125 C320.31777492 679.8270759 318.27180551 682.44870518 314.6875 685.25 C309.50733355 688.00822054 304.12513111 690.18118447 298.6875 692.375 C297.09931807 693.03275573 295.51200789 693.69261991 293.92553711 694.35449219 C290.70457282 695.69671848 287.48038122 697.03066325 284.25341797 698.35839844 C277.88202816 700.98779769 271.56654097 703.74163896 265.25 706.5 C262.79586085 707.56577479 260.34147483 708.63096133 257.88671875 709.6953125 C257.24917664 709.97191711 256.61163452 710.24852173 255.95477295 710.5335083 C246.828895 714.49195238 237.69524308 718.43242858 228.5625 722.375 C227.62867493 722.77814423 226.69484985 723.18128845 225.73272705 723.59664917 C221.91016263 725.246883 218.08757941 726.89707327 214.26495361 728.54716492 C207.80263842 731.33673987 201.34065369 734.12707893 194.87890625 736.91796875 C179.63005375 743.50396258 164.38073034 750.0888588 149.12890625 756.66796875 C148.0659584 757.12652252 147.00301056 757.58507629 145.90785217 758.05752563 C140.53185333 760.37658992 135.15551862 762.69487028 129.77856445 765.01171875 C120.18659082 769.14566942 110.59709533 773.28492416 101.0199585 777.45315552 C96.92320612 779.23604896 92.82502827 781.01565294 88.72680664 782.79516602 C86.80040782 783.6328921 84.87477416 784.47238017 82.94995117 785.3137207 C80.30444084 786.47001025 77.65642927 787.62037919 75.0078125 788.76953125 C74.23321686 789.11007034 73.45862122 789.45060944 72.66055298 789.8014679 C69.01714772 791.3755684 65.65005564 792.68468842 61.6875 793.25 C61.84863281 793.76691406 62.00976562 794.28382813 62.17578125 794.81640625 C65.5787337 810.99991295 61.24888051 829.90254657 52.58984375 843.6953125 C47.37434584 850.6992871 41.05579043 856.59063987 33.6875 861.25 C38.82146608 859.65904932 43.64072303 857.57889061 48.53515625 855.3828125 C49.40267517 854.99631531 50.27019409 854.60981812 51.16400146 854.21160889 C54.0271654 852.93533185 56.88857178 851.6551632 59.75 850.375 C61.76964805 849.47383565 63.78942563 848.57296154 65.80932617 847.67236328 C70.01072742 845.79891048 74.21156539 843.92420214 78.41210938 842.04882812 C84.35986868 839.39463424 90.31190725 836.75017178 96.265625 834.109375 C113.6575978 826.3938863 131.03922099 818.65727535 148.384552 810.83740234 C150.899278 809.704716 153.41512354 808.57455763 155.93139648 807.4453125 C157.53503184 806.72534584 159.13862963 806.00529549 160.7421875 805.28515625 C161.51162186 804.939617 162.28105621 804.59407776 163.07380676 804.23806763 C167.24832476 802.35963962 171.41153055 800.45945172 175.56213379 798.52876282 C177.32346631 797.71114258 179.0889159 796.90240956 180.85449219 796.09399414 C182.89602019 795.15914833 184.9313571 794.21057128 186.95800781 793.24389648 C192.91848561 790.54004635 198.12861404 789.31514459 204.6875 790.25 C208.8151867 792.12622123 210.30768795 793.61289592 212.625 797.5 C213.82089811 801.72081686 214.29665084 805.11107838 212.6875 809.25 C208.93552332 814.5455057 205.35456564 816.82551026 199.453125 819.359375 C198.64006897 819.72339417 197.82701294 820.08741333 196.98931885 820.46246338 C194.31178526 821.65670762 191.62496745 822.82830303 188.9375 824 C187.04302309 824.83980105 185.14915198 825.6809699 183.25585938 826.5234375 C178.35990854 828.69701224 173.45576118 830.8513148 168.5480957 832.99829102 C165.82202466 834.19113613 163.09725057 835.3868817 160.37304688 836.58398438 C153.61457638 839.55370533 146.85542139 842.52180441 140.09082031 845.47753906 C127.9112638 850.80382577 115.78930509 856.2495872 103.6875 861.75 C89.05856761 868.39902189 74.3816492 874.92523719 59.65539551 881.35568237 C44.50220485 887.97555932 29.42489524 894.75495856 14.38085938 901.61914062 C5.64840274 905.59772832 -3.1118054 909.50453646 -11.921875 913.30859375 C-12.8304425 913.70337418 -13.73901001 914.0981546 -14.67510986 914.50489807 C-15.51418884 914.86478317 -16.35326782 915.22466827 -17.21777344 915.59545898 C-17.96138123 915.91562485 -18.70498901 916.23579071 -19.47113037 916.56565857 C-21.3125 917.25 -21.3125 917.25 -23.3125 917.25 C-23.2403125 917.96800781 -23.168125 918.68601562 -23.09375 919.42578125 C-22.26486014 928.67020566 -22.1123385 937.84996387 -22.27539062 947.12646484 C-22.30662045 948.91355056 -22.31950093 950.70094348 -22.328125 952.48828125 C-22.69381699 961.51303707 -26.39676936 969.89255882 -32.9375 976.1875 C-37.06029237 979.46663215 -41.64579517 981.25473597 -46.578125 983.01171875 C-52.20055234 985.55787513 -54.25782181 989.73437613 -56.75 995.125 C-77.51207577 1038.19510285 -108.69179903 1086.6752838 -155.47563171 1104.05351257 C-169.10761458 1108.68348468 -182.83653972 1111.05064351 -197.0625 1113 C-199.10045658 1113.29160106 -201.13821845 1113.58456627 -203.17578125 1113.87890625 C-208.8842664 1114.69781243 -214.59699401 1115.48178074 -220.3125 1116.25 C-221.50895645 1116.41221039 -221.50895645 1116.41221039 -222.72958374 1116.57769775 C-240.64451964 1118.99038476 -256.74769285 1120.97995214 -272.24609375 1109.9453125 C-279.10192033 1104.32068351 -284.56792739 1097.07988624 -286.3125 1088.25 C-286.337078 1086.15753438 -286.30412529 1084.06410344 -286.234375 1081.97265625 C-286.19570312 1080.11737305 -286.19570312 1080.11737305 -286.15625 1078.22460938 C-286.09458177 1075.65124568 -286.01690273 1073.07820722 -285.921875 1070.50585938 C-285.73028957 1058.90895391 -288.67665447 1049.2315547 -295.375 1039.75 C-296.02597656 1038.8115625 -296.67695312 1037.873125 -297.34765625 1036.90625 C-298.68379441 1035.09993997 -300.06932075 1033.32935938 -301.49609375 1031.59375 C-304.90820522 1027.19102553 -304.91023652 1022.60204086 -304.3125 1017.25 C-300.61739945 1007.82749359 -285.96764097 1004.15122886 -277.18309021 1000.31288147 C-275.513681 999.58610013 -273.84394861 998.86006076 -272.17391968 998.13470459 C-267.62414419 996.15775268 -263.07949915 994.16908914 -258.53515625 992.1796875 C-257.60149734 991.77102448 -256.66783844 991.36236145 -255.70588684 990.9413147 C-246.10818356 986.73357281 -236.55097078 982.43754105 -227 978.125 C-223.66419574 976.61949625 -220.32826628 975.11427036 -216.9921875 973.609375 C-215.77110039 973.05852737 -215.77110039 973.05852737 -214.52534485 972.49655151 C-206.23792014 968.76077718 -197.93384109 965.06285161 -189.625 961.375 C-188.90064758 961.05347961 -188.17629517 960.73195923 -187.42999268 960.4006958 C-184.43865821 959.07311497 -181.44719026 957.74583562 -178.45553589 956.41897583 C-169.70879272 952.53954731 -160.96548767 948.65238787 -152.22201538 944.76559448 C-147.46188499 942.64955577 -142.70166217 940.53372505 -137.94140625 938.41796875 C-136.98837112 937.99437576 -136.035336 937.57078278 -135.05342102 937.13435364 C-130.16593525 934.96215774 -125.27822454 932.79046971 -120.39013672 930.61962891 C-119.4113858 930.1849379 -118.43263489 929.75024689 -117.42422485 929.30238342 C-115.45653746 928.42863915 -113.48874422 927.55513322 -111.52084351 926.68186951 C-106.73058748 924.55562292 -101.94250037 922.42476686 -97.15917969 920.28295898 C-89.57003151 916.88854044 -81.98659957 913.49741746 -74.30117798 910.32545471 C-71.53294382 909.18220138 -68.77434279 908.01672398 -66.01611328 906.84957886 C-64.19021852 906.08964386 -62.34915567 905.36647354 -60.5078125 904.64477539 C-54.89453101 902.50316973 -54.89453101 902.50316973 -51.28613281 898.05737305 C-50.78076435 895.70383424 -50.78076435 895.70383424 -50.57983398 893.34887695 C-50.17817537 890.19539833 -48.62486 888.66091538 -46.4375 886.4375 C-45.63699219 885.60992188 -44.83648438 884.78234375 -44.01171875 883.9296875 C-43.12097656 883.04539062 -42.23023438 882.16109375 -41.3125 881.25 C-40.31772303 880.23302854 -39.32427579 879.21475497 -38.33203125 878.1953125 C-26.25172702 865.86121229 -13.78622224 855.75539698 1.625 847.8125 C21.60098887 837.53889736 21.60098887 837.53889736 33.5 819.3125 C34.8051691 814.70090252 35.2175581 810.00451564 35.6875 805.25 C34.95563477 805.5809668 34.22376953 805.91193359 33.46972656 806.25292969 C17.30259861 813.55502385 1.08044641 820.69800615 -15.23921204 827.65396118 C-24.13077943 831.44747383 -33.0013391 835.28984562 -41.875 839.125 C-45.67833638 840.76834268 -49.4817457 842.41151649 -53.28515625 844.0546875 C-54.25856461 844.47525421 -55.23197296 844.89582092 -56.23487854 845.32913208 C-66.68087909 849.84199378 -77.12952864 854.3487101 -87.57830811 858.85513306 C-110.03000902 868.53827384 -132.47858654 878.22862774 -154.92529297 887.92333984 C-163.13516592 891.46913525 -171.34532143 895.01427629 -179.55545044 898.55947876 C-184.1411447 900.53962685 -188.72682148 902.51981543 -193.3125 904.5 C-195.14583325 905.29166686 -196.97916658 906.08333353 -198.8125 906.875 C-199.72 907.266875 -200.6275 907.65875 -201.5625 908.0625 C-209.81250035 911.62500015 -209.81250035 911.62500015 -212.56214905 912.81234741 C-214.39665323 913.60452037 -216.2311564 914.39669566 -218.06565857 915.18887329 C-222.63106964 917.16031288 -227.1964979 919.13171263 -231.76196289 921.10302734 C-240.22502698 924.75732895 -248.68793274 928.41199573 -257.15023804 932.0680542 C-261.07429514 933.76337715 -264.99844807 935.4584782 -268.92260742 937.15356445 C-270.76282411 937.94853933 -272.60299575 938.74361851 -274.44311523 939.53881836 C-275.30686768 939.91208252 -276.17062012 940.28534668 -277.06054688 940.66992188 C-277.91178131 941.03804993 -278.76301575 941.40617798 -279.64004517 941.78546143 C-281.32425049 942.51207012 -283.00960274 943.23602663 -284.69613647 943.95721436 C-289.11684289 945.85025972 -293.50807814 947.79043652 -297.87548828 949.80371094 C-299.26405785 950.4309053 -299.26405785 950.4309053 -300.68067932 951.07077026 C-302.43657036 951.8645576 -304.18563527 952.67371682 -305.92564392 953.5017395 C-311.98955178 956.21241336 -317.67798468 957.27103822 -324.3125 956.25 C-328.86847312 953.90631089 -331.33300104 950.92391318 -333.0703125 946.125 C-333.54354849 944.5050118 -333.99807439 942.87948434 -334.4375 941.25 C-337.14970815 932.28013556 -340.52024779 923.7521575 -344.3125 915.1875 C-345.4357508 912.63969936 -346.55772455 910.09133674 -347.6796875 907.54296875 C-347.96906189 906.88656403 -348.25843628 906.2301593 -348.55657959 905.55386353 C-351.9368939 897.86608471 -355.20068517 890.12976633 -358.44042969 882.38186646 C-359.09750675 880.812198 -359.75663822 879.24338773 -360.41796875 877.67550659 C-371.273782 851.93206705 -370.9328069 835.05929493 -360.48828125 809.1640625 C-359.45760265 806.6480845 -358.41707996 804.13627291 -357.375 801.625 C-357.11554596 800.99561523 -356.85609192 800.36623047 -356.58877563 799.71777344 C-354.15567079 793.82057909 -351.72713187 787.94921984 -348.8046875 782.2734375 C-342.70427291 769.95571579 -345.11001034 760.16595646 -348.55908203 747.19921875 C-349.41790974 743.83737861 -350.04619591 740.47017375 -350.65209961 737.0559082 C-355.77023256 709.07820228 -366.82771807 679.58891682 -389.3125 661.25 C-389.96476563 660.68925781 -390.61703125 660.12851562 -391.2890625 659.55078125 C-393.89505821 657.45565254 -395.54248507 656.20498155 -398.95166016 656.40429688 C-403.28658099 657.49511235 -407.2378135 659.13842984 -411.3359375 660.90625 C-412.21690094 661.28007813 -413.09786438 661.65390625 -414.00552368 662.0390625 C-416.90215863 663.26993419 -419.79478025 664.50995841 -422.6875 665.75 C-424.72369578 666.61715324 -426.76015789 667.48368132 -428.796875 668.34960938 C-432.96472176 670.1227949 -437.13100296 671.8995811 -441.29589844 673.6796875 C-446.72831557 676.00141428 -452.16397222 678.31541835 -457.6015625 680.625 C-458.41029312 680.96852509 -459.21902374 681.31205017 -460.05226135 681.66598511 C-461.66704193 682.35187391 -463.28183372 683.03773634 -464.89663696 683.72357178 C-467.33722603 684.76050535 -469.77743218 685.79833513 -472.2175293 686.83642578 C-484.63662175 692.11921238 -497.06602539 697.37734483 -509.5 702.625 C-510.90298843 703.21713287 -510.90298843 703.21713287 -512.33432007 703.82122803 C-519.94814853 707.03441836 -527.56250442 710.24635814 -535.17687988 713.45825195 C-541.82649831 716.26325407 -548.47591055 719.06874419 -555.125 721.875 C-556.06072845 722.26991638 -556.99645691 722.66483276 -557.96054077 723.07171631 C-571.08600977 728.61205406 -584.20282556 734.17239979 -597.3125 739.75 C-616.06986863 747.73045014 -634.84714566 755.66332486 -653.62884521 763.58631897 C-660.58522914 766.52088823 -667.54085699 769.45724419 -674.49609375 772.39453125 C-675.50083237 772.81883423 -676.50557098 773.24313721 -677.54075623 773.68029785 C-681.43468922 775.32472739 -685.32861375 776.96917694 -689.22250366 778.6137085 C-690.11611603 778.99110168 -691.00972839 779.36849487 -691.93041992 779.75732422 C-693.24624557 780.31319466 -693.24624557 780.31319466 -694.58865356 780.8802948 C-696.30856863 781.60620709 -698.02891727 782.33109305 -699.74972534 783.05488586 C-704.04751112 784.86361765 -708.3363221 786.69003306 -712.61303711 788.5480957 C-713.47158295 788.91796097 -714.33012878 789.28782623 -715.21469116 789.66889954 C-716.83430856 790.36706281 -718.45132638 791.07130235 -720.06509399 791.78288269 C-725.74639898 794.22042481 -731.13981749 795.93749594 -737.3125 794.25 C-740.71650141 792.53416189 -742.69450717 790.21729313 -744.75 787 C-745.57350175 782.97399146 -745.59511355 779.17518419 -744.3125 775.25 C-740.22989031 769.07966202 -735.32156218 767.03711177 -728.59375 764.30078125 C-726.99043068 763.62540565 -726.99043068 763.62540565 -725.35472107 762.93638611 C-721.84690151 761.4629445 -718.32993166 760.01282709 -714.8125 758.5625 C-712.35681829 757.53577092 -709.90174709 756.50770354 -707.44750977 755.47753906 C-702.45712595 753.38513963 -697.46277147 751.30253843 -692.46533203 749.22705078 C-686.06990901 746.56893674 -679.68594545 743.88474288 -673.30859375 741.18359375 C-672.37932571 740.79004196 -671.45005768 740.39649017 -670.49263 739.99101257 C-668.65401563 739.21220511 -666.81543783 738.43331128 -664.97689819 737.65432739 C-660.40850123 735.72047237 -655.83706385 733.79383829 -651.265625 731.8671875 C-649.44856495 731.10124352 -647.63150766 730.335293 -645.81445312 729.56933594 C-644.91106201 729.18853882 -644.0076709 728.8077417 -643.0769043 728.41540527 C-634.5503374 724.82081311 -626.02501621 721.22326798 -617.5 717.625 C-616.56300262 717.22953979 -615.62600525 716.83407959 -614.66061401 716.42663574 C-600.71871777 710.54169287 -586.78724648 704.63260932 -572.86239624 698.7074585 C-558.56892255 692.62595391 -544.26094835 686.57923465 -529.94873047 680.54199219 C-516.72807983 674.96470661 -503.51581633 669.36819366 -490.3125 663.75 C-475.57176964 657.47799727 -460.82060501 651.23101231 -446.0625 645 C-445.10424316 644.59531494 -444.14598633 644.19062988 -443.15869141 643.77368164 C-437.94641648 641.57271324 -432.7327801 639.37502319 -427.51782227 637.18041992 C-425.48592276 636.32316663 -423.45642778 635.46050979 -421.42773438 634.59570312 C-420.34298828 634.13615234 -419.25824219 633.67660156 -418.140625 633.203125 C-416.78565918 632.62546387 -416.78565918 632.62546387 -415.40332031 632.03613281 C-413.3125 631.25 -413.3125 631.25 -411.3125 631.25 C-411.40789063 630.59515625 -411.50328125 629.9403125 -411.6015625 629.265625 C-412.76388089 619.69677126 -411.43183893 611.45040041 -408.41015625 602.3359375 C-406.09287001 594.90265398 -404.70118756 587.42347629 -403.4375 579.75 C-403.19836584 578.40616999 -402.95878417 577.06241954 -402.71875 575.71875 C-402.50476563 574.44 -402.29078125 573.16125 -402.0703125 571.84375 C-401.8758252 570.69583984 -401.68133789 569.54792969 -401.48095703 568.36523438 C-401.29897843 564.99994896 -401.68612914 563.181223 -403.3125 560.25 C-408.41627013 557.52062679 -413.33174301 558.35849543 -418.875 558.875 C-427.48509552 559.48407932 -434.30024578 558.74706123 -442.3125 555.25 C-443.68148437 554.66992188 -443.68148437 554.66992188 -445.078125 554.078125 C-452.54614737 550.63478535 -457.95308436 546.59494455 -462.375 539.625 C-464.91938364 535.67521073 -466.87905041 533.17394982 -471.3125 531.25 C-478.99848127 530.51283393 -486.13757012 531.75059163 -493.5625 533.625 C-494.61445557 533.88249023 -495.66641113 534.13998047 -496.75024414 534.40527344 C-507.21209607 537.05738138 -517.45633468 540.37438325 -527.67871094 543.82177734 C-539.15966674 547.66319468 -549.06717543 549.59793955 -561.1875 549.5625 C-562.82912109 549.58666992 -562.82912109 549.58666992 -564.50390625 549.61132812 C-571.2842961 549.61534019 -577.27471128 548.78879166 -583.80102539 546.93798828 C-594.08144438 544.12179107 -603.7962875 549.86747182 -612.90234375 554.19921875 C-622.40407768 558.34178994 -635.72742903 557.57041578 -645.375 554.4375 C-665.2178355 546.21392673 -682.97091067 532.05170935 -698.3125 517.25 C-699.08851563 516.52554688 -699.86453125 515.80109375 -700.6640625 515.0546875 C-707.2967855 508.70321071 -712.79000884 501.55682709 -718.3125 494.25 C-719.01342773 493.33226807 -719.01342773 493.33226807 -719.72851562 492.39599609 C-725.3317233 485.04323913 -730.43728434 477.57812587 -735.11206055 469.6027832 C-738.4894618 463.86747371 -742.17455952 458.47040728 -746.3125 453.25 C-746.71645996 452.73824219 -747.12041992 452.22648437 -747.53662109 451.69921875 C-748.8115088 450.10959768 -750.1171368 448.55196667 -751.4375 447 C-752.22382812 446.06671875 -753.01015625 445.1334375 -753.8203125 444.171875 C-756.16519917 441.9147504 -756.16519917 441.9147504 -759.14453125 442.4987793 C-762.13580553 443.20810042 -764.6885865 444.10025395 -767.4921875 445.34765625 C-769.05718994 446.03565308 -769.05718994 446.03565308 -770.65380859 446.73754883 C-771.81992676 447.25728271 -772.98604492 447.7770166 -774.1875 448.3125 C-776.90466237 449.50883241 -779.6243303 450.69943436 -782.34375 451.890625 C-783.1016684 452.22334915 -783.85958679 452.5560733 -784.64047241 452.89888 C-795.95766974 457.8603392 -807.32706454 462.70113388 -818.6875 467.5625 C-822.91775526 469.37388058 -827.14784987 471.18563616 -831.37795639 472.99736404 C-833.23412366 473.7923007 -835.09033766 474.58712813 -836.94656372 475.38192749 C-845.30346259 478.9603162 -853.65894869 482.54198818 -862.01358414 486.12565804 C-865.84593576 487.76947095 -869.67842691 489.41295855 -873.5109005 491.05648708 C-876.56523365 492.36635519 -879.61945369 493.6764856 -882.67352295 494.98696899 C-886.06856495 496.4437006 -889.46393626 497.89966217 -892.859375 499.35546875 C-894.33716934 499.98991409 -894.33716934 499.98991409 -895.84481812 500.63717651 C-897.71864812 501.44026942 -899.59362616 502.24068997 -901.46984863 503.03817749 C-903.48950573 503.89915748 -905.50496689 504.77000958 -907.51745605 505.64761353 C-908.57420532 506.10203827 -909.63095459 506.55646301 -910.71972656 507.0246582 C-911.67284729 507.43875443 -912.62596802 507.85285065 -913.60797119 508.27949524 C-918.71530417 510.11223259 -923.10910469 510.13135812 -928.125 508.125 C-931.49039571 505.2403751 -933.90297431 502.5582357 -934.69921875 498.0703125 C-934.88791744 494.2052428 -934.45609966 491.58941737 -932.9375 488 C-926.94849173 481.72580086 -917.38378041 478.89984934 -909.4921875 475.57421875 C-908.46023254 475.13613388 -907.42827759 474.69804901 -906.36505127 474.24668884 C-904.13801167 473.30161877 -901.9103719 472.35796196 -899.68218994 471.41558838 C-894.26137532 469.12284046 -888.84419266 466.82154048 -883.42673874 464.52086639 C-881.53400712 463.71719241 -879.64111248 462.91390336 -877.74819946 462.11065674 C-864.29611509 456.40084815 -850.86660277 450.63862962 -837.4375 444.875 C-815.08332415 435.28408988 -792.70851985 425.74276912 -770.3125 416.25 C-770.37832275 415.55551758 -770.44414551 414.86103516 -770.51196289 414.14550781 C-770.81040053 410.93123579 -771.09275842 407.7157331 -771.375 404.5 C-771.47876953 403.40816406 -771.58253906 402.31632812 -771.68945312 401.19140625 C-772.83386149 387.85312947 -771.66094904 377.52486982 -765.4453125 365.66796875 C-761.78910064 358.66328932 -758.5947921 351.85482773 -756.375 344.25 C-756.17592041 343.5686499 -755.97684082 342.8872998 -755.77172852 342.18530273 C-751.73543804 327.49923561 -753.14185128 313.40560575 -758 299.0625 C-761.14795565 288.91536635 -759.53807568 278.84629382 -755.3125 269.25 C-752.6226019 264.66636815 -749.52195675 260.47210978 -746.3125 256.25 C-745.34355177 254.94512315 -744.37615962 253.63908969 -743.41015625 252.33203125 C-740.40667887 248.28242619 -737.36382971 244.26360888 -734.3125 240.25 C-733.88324219 239.6828125 -733.45398438 239.115625 -733.01171875 238.53125 C-723.88656986 226.48025972 -714.52960038 214.54960642 -704.29296875 203.41796875 C-702.39368692 201.33887326 -700.57061611 199.21041788 -698.75 197.0625 C-689.87425391 187.02469235 -678.92781389 180.93920807 -667.26953125 174.59375 C-657.32258398 169.04196548 -651.52914698 160.62215111 -646 150.875 C-645.44586426 149.92254395 -644.89172852 148.97008789 -644.32080078 147.98876953 C-641.63389879 143.35949173 -639.00208771 138.70297188 -636.41796875 134.015625 C-625.15213097 113.71554029 -609.94525306 101.15029654 -590.83743286 88.33798218 C-589.16925635 87.21723322 -587.51014406 86.08302958 -585.85131836 84.94848633 C-576.35010901 78.70090771 -565.86869977 74.32287587 -554.31494141 76.65283203 C-551.55708492 77.33686471 -548.82953256 78.10175405 -546.10742188 78.91601562 C-534.0381313 82.13374043 -522.31962595 78.43930924 -510.69659424 75.12869263 C-494.01812478 70.41682217 -477.59057034 66.93207226 -460.3125 65.25 C-459.60814819 65.17908142 -458.90379639 65.10816284 -458.17810059 65.03509521 C-437.64088539 62.9733212 -417.13949431 61.95206147 -396.5 61.8125 C-395.56293213 61.80037476 -394.62586426 61.78824951 -393.66040039 61.77575684 C-379.21969388 61.61589897 -368.33897865 62.36523496 -357.4765625 72.8828125 C-349.08322211 82.06397546 -348.0114241 91.00434577 -348.47851562 103.04296875 C-348.66719434 109.68373116 -348.66719434 109.68373116 -345.3125 115.25 C-342.50295942 116.88160886 -342.50295942 116.88160886 -339.3125 118 C-338.260625 118.40734375 -337.20875 118.8146875 -336.125 119.234375 C-330.60044746 121.22935231 -328.18594109 120.73440319 -322.8359375 118.62109375 C-322.06447891 118.32496689 -321.29302032 118.02884003 -320.4981842 117.72373962 C-317.89112721 116.72047527 -315.28946039 115.7039022 -312.6875 114.6875 C-310.81551609 113.96415052 -308.94319238 113.24167988 -307.07055664 112.52001953 C-302.99018164 110.94572117 -298.91206172 109.36575361 -294.83544922 107.78173828 C-288.17741113 105.19549183 -281.51305796 102.62579206 -274.84765625 100.05859375 C-265.25971144 96.36455846 -255.67380479 92.66529632 -246.08984375 88.9609375 C-232.84811122 83.8428358 -219.60438012 78.72992829 -206.3598938 73.61895752 C-200.42733383 71.3295521 -194.4949247 69.0397559 -188.5625 66.75 C-186.18750072 65.83333147 -183.81250072 64.9166648 -181.4375 64 C-180.261875 63.54625 -179.08625 63.0925 -177.875 62.625 C-174.3125 61.25 -170.75 59.875 -167.1875 58.5 C-166.01191528 58.04626511 -164.83633057 57.59253021 -163.62512207 57.12504578 C-161.24971637 56.20822342 -158.87430947 55.29140416 -156.49890137 54.37458801 C-150.56759878 52.08532893 -144.63631693 49.79601615 -138.70507812 47.5065918 C-127.94389162 43.35289612 -117.18257691 39.19953473 -106.42042542 35.04833984 C-103.99551578 34.11293317 -101.57066017 33.17738643 -99.14585876 32.24169922 C-93.17568681 29.93794146 -87.2048971 27.63581723 -81.23266602 25.33740234 C-70.68409481 21.27486393 -60.14348642 17.19528293 -49.63314819 13.03465271 C-45.08582802 11.23475824 -40.53500238 9.4438162 -35.98413086 7.65292358 C-33.85161434 6.81028818 -31.72102406 5.9627592 -29.5925293 5.11001587 C-26.66916091 3.9388874 -23.73975385 2.78427151 -20.80859375 1.6328125 C-19.95921738 1.28712723 -19.109841 0.94144196 -18.23472595 0.58528137 C-11.87705848 -1.88438614 -6.34360298 -3.35133742 0 0 Z M-230.0625 150.3125 C-232.88881152 154.24680076 -233.62657618 159.00426381 -234.72802734 163.63452148 C-236.13275475 169.24303084 -238.18203377 173.22967954 -242.3125 177.25 C-243.10914063 178.03375 -243.90578125 178.8175 -244.7265625 179.625 C-249.45397523 183.47061553 -255.21180366 185.37792109 -260.8125 187.625 C-263.61935628 188.77338227 -266.42268342 189.93030856 -269.2265625 191.0859375 C-269.99984894 191.40342957 -270.77313538 191.72092163 -271.56985474 192.04803467 C-282.82053902 196.67554318 -293.99866068 201.47547257 -305.1875 206.25 C-307.53642194 207.25122471 -309.88538056 208.25236338 -312.234375 209.25341797 C-329.4122143 216.57606706 -346.57893587 223.92457538 -363.73657227 231.29443359 C-374.25680325 235.81113018 -384.78664893 240.30417782 -395.33128738 244.76357269 C-397.22544875 245.5648838 -399.11930138 246.36691964 -401.01303101 247.16925049 C-401.94192925 247.56279913 -401.94192925 247.56279913 -402.88959312 247.96429825 C-404.13213251 248.49075991 -405.37465705 249.01725663 -406.61716652 249.54378891 C-409.65638753 250.83124508 -412.69679912 252.11577989 -415.73876953 253.39672852 C-419.10525094 254.81435435 -422.46887928 256.23855982 -425.83203125 257.6640625 C-426.83688065 258.08495148 -427.84173004 258.50584045 -428.87702942 258.93948364 C-430.26398262 259.52945633 -430.26398262 259.52945633 -431.67895508 260.13134766 C-432.48158279 260.46993805 -433.28421051 260.80852844 -434.11116028 261.15737915 C-436.41071441 262.29874809 -438.31102439 263.64968372 -440.3125 265.25 C-438.9925 267.89 -437.6725 270.53 -436.3125 273.25 C-423.26596248 268.4834992 -410.56691682 262.86168038 -397.8125 257.375 C-395.94612543 256.57350711 -394.0795919 255.77238517 -392.21305656 254.97126675 C-373.92075184 247.11923062 -355.65832451 239.19913731 -337.40396118 231.25930786 C-318.5772918 223.07297316 -299.70431547 214.9993313 -280.81054688 206.96923828 C-278.56769647 206.01597844 -276.32485797 205.06269057 -274.08203125 204.109375 C-272.96603546 203.63503021 -271.85003967 203.16068542 -270.70022583 202.67196655 C-257.35135471 196.99518975 -244.01909537 191.27969404 -230.6875 185.5625 C-229.55855316 185.07838654 -228.42960632 184.59427307 -227.26644897 184.0954895 C-221.84510768 181.77059462 -216.42396265 179.44524263 -211.00292969 177.11962891 C-203.55735759 173.9257358 -196.11077133 170.73421036 -188.6640625 167.54296875 C-188.03841778 167.27485193 -187.41277306 167.00673512 -186.7681694 166.73049355 C-183.2829689 165.23694289 -179.79774496 163.74344692 -176.3125 162.25 C-178.42689815 160.13560185 -179.38851092 159.75293611 -182.17626953 158.92138672 C-183.36858688 158.56123978 -183.36858688 158.56123978 -184.58499146 158.19381714 C-185.87710037 157.81557297 -185.87710037 157.81557297 -187.1953125 157.4296875 C-188.08354706 157.16616486 -188.97178162 156.90264221 -189.88693237 156.63113403 C-191.77063531 156.07477731 -193.65536359 155.52188239 -195.54101562 154.97216797 C-198.40884934 154.13337979 -201.27079916 153.2763753 -204.1328125 152.41796875 C-205.96581492 151.87908147 -207.79913884 151.34128632 -209.6328125 150.8046875 C-210.48207306 150.54847626 -211.33133362 150.29226501 -212.20632935 150.02828979 C-221.46050507 147.28883208 -221.46050507 147.28883208 -230.0625 150.3125 Z M-117.1640625 165.58984375 C-118.03431061 165.94739243 -118.90455872 166.3049411 -119.80117798 166.67332458 C-129.71560854 170.77431599 -139.55018924 175.06602993 -149.37954712 179.36593628 C-155.19881806 181.91069629 -161.0230821 184.44396892 -166.84765625 186.9765625 C-168.04780869 187.4984465 -169.24796112 188.02033051 -170.48448181 188.55802917 C-183.00518316 193.99602283 -195.56159516 199.34906449 -208.125 204.6875 C-212.63416704 206.60404328 -217.1432874 208.52069631 -221.65234375 210.4375 C-222.77430145 210.91440277 -223.89625916 211.39130554 -225.05221558 211.88265991 C-237.77455684 217.29291012 -250.48168328 222.73858005 -263.1875 228.1875 C-264.92490952 228.93252274 -264.92490952 228.93252274 -266.69741821 229.69259644 C-272.55852524 232.20599791 -278.41944952 234.71982515 -284.28027344 237.23388672 C-294.79361171 241.74343358 -305.3086626 246.24898414 -315.82357788 250.75485229 C-319.29561134 252.24276251 -322.76756954 253.73084816 -326.23950195 255.21899414 C-337.04456723 259.85021175 -347.84998515 264.48060183 -358.65664673 269.10809326 C-363.07096981 270.9983468 -367.48511583 272.88901364 -371.89922523 274.77976608 C-374.88294671 276.05778498 -377.86679453 277.33550754 -380.85083008 278.61279297 C-396.02658802 285.10869745 -411.18174366 291.64991336 -426.3125 298.25 C-415.48526998 325.61945433 -404.14820773 352.78015712 -392.8671875 379.96484375 C-392.51239319 380.81982956 -392.15759888 381.67481537 -391.79205322 382.55570984 C-391.44044128 383.40301163 -391.08882935 384.25031342 -390.7265625 385.12329102 C-390.37835449 385.96240021 -390.03014648 386.8015094 -389.67138672 387.66604614 C-388.97679013 389.33979946 -388.28212923 391.0135261 -387.58740234 392.68722534 C-379.77209752 411.51809145 -372.03527016 430.38102847 -364.3125 449.25 C-358.05734623 447.24558705 -351.95663752 444.98221192 -345.875 442.50390625 C-344.53038193 441.95978088 -344.53038193 441.95978088 -343.15859985 441.40466309 C-340.20877072 440.21003982 -337.26061255 439.01135255 -334.3125 437.8125 C-332.21540274 436.96198384 -330.11823335 436.1116455 -328.02099609 435.26147461 C-308.18429503 427.21542413 -288.3658213 419.12447578 -268.55072021 411.02540588 C-258.32671962 406.84655654 -248.10063987 402.67280797 -237.87435913 398.49954224 C-232.76382258 396.4139364 -227.65339383 394.32806646 -222.54296875 392.2421875 C-221.53130142 391.82926956 -220.51963409 391.41635162 -219.47731018 390.99092102 C-213.40250739 388.51140412 -207.32785626 386.03151608 -201.25332642 383.55133057 C-177.80768935 373.97867038 -154.3586813 364.41434975 -130.90472412 354.86209106 C-115.54642625 348.60696146 -100.19131832 342.34408497 -84.83908081 336.07409668 C-63.6774751 327.43158677 -42.50231375 318.82311379 -21.3125 310.25 C-24.04497965 300.30308862 -27.06058377 291.89117872 -33.0625 283.375 C-34.39770823 281.40403376 -35.73231989 279.43266327 -37.06640625 277.4609375 C-38.10692139 275.9445166 -38.10692139 275.9445166 -39.16845703 274.39746094 C-42.85688274 268.98284192 -46.42269518 263.48839056 -50 258 C-50.71873291 256.90155762 -51.43746582 255.80311523 -52.17797852 254.67138672 C-57.31179515 246.81828553 -62.3608045 238.91677545 -67.33984375 230.96484375 C-69.48789168 227.54005029 -71.67422304 224.14250964 -73.87890625 220.75390625 C-84.86814964 203.8222881 -92.93107429 187.57496096 -99.47802734 168.46972656 C-100.29064179 166.30814362 -101.24142513 164.29408949 -102.3125 162.25 C-107.98116145 161.76639338 -112.05128179 163.43713914 -117.1640625 165.58984375 Z M-454.20172119 309.84814453 C-455.36305573 310.36030518 -455.36305573 310.36030518 -456.54785156 310.8828125 C-457.4366954 311.27005997 -458.32553925 311.65730743 -459.24131775 312.05628967 C-460.21871414 312.49146408 -461.19611053 312.92663849 -462.203125 313.375 C-463.22890152 313.82399155 -464.25467804 314.27298309 -465.3115387 314.73558044 C-467.54969891 315.71605283 -469.78633196 316.70001677 -472.02163696 317.6869812 C-477.4538847 320.08490093 -482.89547809 322.46142417 -488.33660316 324.83910942 C-490.2314516 325.66741614 -492.12589947 326.49663404 -494.02030945 327.32594299 C-506.68493531 332.86665624 -519.40051101 338.28583725 -532.125 343.6875 C-536.63434625 345.60362181 -541.14337575 347.52048828 -545.65234375 349.4375 C-546.77439209 349.91444809 -547.89644043 350.39139618 -549.05249023 350.88279724 C-561.774765 356.29294253 -574.48177733 361.73862039 -587.1875 367.1875 C-588.92490952 367.93252274 -588.92490952 367.93252274 -590.69741821 368.69259644 C-596.55852524 371.20599791 -602.41944952 373.71982515 -608.28027344 376.23388672 C-616.46143882 379.7430812 -624.64356143 383.2500409 -632.82609558 386.75604248 C-638.61653361 389.23712921 -644.40655792 391.71916992 -650.19555664 394.20361328 C-661.18023623 398.91662983 -672.16930468 403.61874092 -683.1723938 408.28860474 C-687.76157377 410.23640848 -692.3487535 412.18890286 -696.93548775 414.14245796 C-700.07518733 415.47926219 -703.21601784 416.81326328 -706.35961914 418.14086914 C-709.82197024 419.60435635 -713.28047668 421.07659087 -716.73828125 422.55078125 C-718.28555656 423.20062737 -718.28555656 423.20062737 -719.86408997 423.86360168 C-720.80653061 424.26737534 -721.74897125 424.67114899 -722.7199707 425.0871582 C-723.94886772 425.60811821 -723.94886772 425.60811821 -725.20259094 426.13960266 C-727.34263102 427.26585728 -728.71442994 428.45186209 -730.3125 430.25 C-729.77882813 430.78625 -729.24515625 431.3225 -728.6953125 431.875 C-722.17600866 438.73267601 -717.46125816 446.13179348 -712.57861328 454.1875 C-703.7820501 468.51711161 -693.89654427 482.04078508 -682.3125 494.25 C-681.60335449 495.00796875 -681.60335449 495.00796875 -680.87988281 495.78125 C-673.05813295 504.09779426 -664.87775293 511.02252397 -655.3125 517.25 C-654.45277588 517.81291748 -654.45277588 517.81291748 -653.57568359 518.38720703 C-639.58617026 527.98556174 -639.58617026 527.98556174 -623.3125 529.25 C-620.12926683 527.93183296 -617.06679674 526.49840804 -613.98413086 524.96728516 C-601.05673947 518.57756711 -587.79880937 517.2619526 -573.94921875 521.5078125 C-558.07096063 525.97724812 -542.38360206 520.12032664 -527.3125 515.25 C-526.70236053 515.05738586 -526.09222107 514.86477173 -525.46359253 514.6663208 C-512.27077635 510.4938934 -499.52969738 505.41398089 -486.75 500.125 C-484.61899084 499.2483168 -482.48771894 498.37227205 -480.35620117 497.49682617 C-475.92168438 495.67495529 -471.48830597 493.85035324 -467.05566406 492.02392578 C-457.13131068 487.93767037 -447.19164336 483.88895099 -437.25296021 479.83770752 C-432.3204101 477.82680438 -427.38866476 475.81393106 -422.45703125 473.80078125 C-421.54322189 473.42777893 -420.62941254 473.05477661 -419.68791199 472.67047119 C-409.56048854 468.53590429 -399.43628168 464.39347455 -389.3125 460.25 C-390.14109791 455.69924355 -391.66654437 451.65626523 -393.4609375 447.41015625 C-393.78481445 446.63319397 -394.10869141 445.85623169 -394.44238281 445.0557251 C-395.14793947 443.36464285 -395.85560595 441.67443967 -396.56512451 439.98501587 C-397.70975253 437.25951395 -398.84900296 434.53182009 -399.98681641 431.8034668 C-401.19187964 428.91404641 -402.39729239 426.02477693 -403.6043396 423.13618469 C-407.60048038 413.57227931 -411.55939749 403.99316489 -415.51220703 394.4112854 C-417.08779301 390.59223224 -418.66465607 386.77370687 -420.24145508 382.95515442 C-421.44236107 380.0468213 -422.64308244 377.13841203 -423.84375 374.22998047 C-427.70777024 364.8701173 -431.57255379 355.51056941 -435.43780518 346.1512146 C-437.03497955 342.28355643 -438.63181612 338.41575885 -440.22842407 334.54786682 C-440.9538646 332.7919753 -441.68021022 331.03645738 -442.40756226 329.28135681 C-443.91812875 325.63594418 -445.42246727 321.9890959 -446.88769531 318.32519531 C-447.55043457 316.68309082 -447.55043457 316.68309082 -448.2265625 315.0078125 C-448.77111084 313.63713623 -448.77111084 313.63713623 -449.32666016 312.23876953 C-450.60411534 309.66171408 -451.38038242 308.95488314 -454.20172119 309.84814453 Z M161.67578125 448.19921875 C160.9137439 448.41211044 160.15170654 448.62500214 159.36657715 448.84434509 C157.74455806 449.2982568 156.12398518 449.75736365 154.50479126 450.22125244 C150.32358898 451.4168714 146.13021195 452.568176 141.9375 453.72265625 C141.12303909 453.94777893 140.30857819 454.17290161 139.46943665 454.40484619 C107.49576139 463.20471194 107.49576139 463.20471194 90.6875 455.25 C89.49666348 454.49517843 88.32240951 453.71155701 87.1875 452.875 C84.87671558 451.00552487 84.87671558 451.00552487 82.50976562 451.45166016 C78.88464786 452.47710437 75.48036282 453.90226015 72.03125 455.3984375 C70.89499931 455.88425293 70.89499931 455.88425293 69.73579407 456.37988281 C68.08717905 457.08537632 66.43949364 457.79304522 64.79263306 458.50262451 C61.21377429 460.0445125 57.63038719 461.57574743 54.0473175 463.1078186 C52.15148322 463.91860984 50.2558881 464.72996053 48.36051941 465.5418396 C39.01899129 469.54223482 29.6590163 473.49838686 20.29525757 477.44641113 C17.47565503 478.63526478 14.65636332 479.82485268 11.8371582 481.01464844 C5.16612381 483.82992178 -1.5053801 486.6440817 -8.17687988 489.45825195 C-14.82649831 492.26325407 -21.47591055 495.06874419 -28.125 497.875 C-29.06072845 498.26991638 -29.99645691 498.66483276 -30.96054077 499.07171631 C-44.08600977 504.61205406 -57.20282556 510.17239979 -70.3125 515.75 C-84.36620428 521.72924413 -98.42904183 527.68646958 -112.5 533.625 C-113.43532562 534.01975525 -114.37065125 534.4145105 -115.33432007 534.82122803 C-122.94814853 538.03441836 -130.56250442 541.24635814 -138.17687988 544.45825195 C-172.58961557 558.97454302 -207.00263719 573.49171342 -241.3125 588.25 C-240.71430657 593.26768949 -239.10501817 597.55369092 -237.09375 602.14453125 C-236.76444992 602.91141769 -236.43514984 603.67830414 -236.09587097 604.46842957 C-235.38200066 606.12948723 -234.66523397 607.78930248 -233.94589233 609.44799805 C-231.98744751 613.96572563 -230.05193999 618.49328663 -228.11328125 623.01953125 C-227.71188431 623.955159 -227.31048737 624.89078674 -226.89692688 625.85476685 C-222.85486475 635.28839446 -218.91789718 644.76427772 -215 654.25 C-214.30013447 655.94266237 -213.60018243 657.63528896 -212.90014648 659.32788086 C-211.82465557 661.9282809 -210.74918187 664.52868789 -209.67402649 667.12922668 C-205.25989022 677.80233639 -200.8181391 688.46393854 -196.375 699.125 C-195.74384781 700.63960815 -195.74384781 700.63960815 -195.09994507 702.18481445 C-189.18445273 716.37893772 -183.25365027 730.56659951 -177.3125 744.75 C-162.87910703 779.20861973 -148.49031488 813.68531711 -134.3125 848.25 C-128.44482098 846.37850643 -122.75881453 844.27753715 -117.109375 841.828125 C-116.33510666 841.49586411 -115.56083832 841.16360321 -114.7631073 840.8212738 C-112.19465764 839.71781668 -109.6285711 838.60897594 -107.0625 837.5 C-105.21307377 836.70394648 -103.36354297 835.90813585 -101.51391602 835.11254883 C-84.51116912 827.79236007 -67.53533952 820.40967835 -50.55908203 813.02832031 C-39.24333071 808.11043453 -27.91895744 803.21396943 -16.57421875 798.36328125 C-15.4622966 797.88775314 -14.35037445 797.41222504 -13.20475769 796.92228699 C-7.9245783 794.66513608 -2.64290656 792.41156064 2.64086914 790.1628418 C13.08305877 785.71037096 23.44564717 781.14819059 33.6875 776.25 C34.71038264 766.18690193 33.48486518 760.80114247 28.25585938 752.36865234 C15.84728869 732.10946234 13.5097578 703.1225505 18.6875 680.25 C27.45127239 648.29089732 54.59150832 624.15276608 77.2578125 601.54931641 C79.58451445 599.22803685 81.90573828 596.90137337 84.2265625 594.57421875 C85.73144988 593.06999133 87.23664697 591.56607369 88.7421875 590.0625 C89.42256073 589.38010254 90.10293396 588.69770508 90.80392456 587.99462891 C94.69422402 584.12305323 98.68408747 580.42512814 102.8475647 576.84838867 C106.04365714 574.07187912 109.10726643 571.15361099 112.1875 568.25 C116.13644565 564.54225969 120.08246567 560.84828152 124.1875 557.3125 C136.60411889 546.52123251 145.79940963 533.5976548 153.6875 519.25 C154.28353027 518.16887939 154.28353027 518.16887939 154.89160156 517.06591797 C161.9618482 504.02962923 167.70003328 490.43408982 173.375 476.75 C173.73900909 475.88044678 174.10301819 475.01089355 174.47805786 474.11499023 C175.52210653 471.61265209 176.55059765 469.10450318 177.57421875 466.59375 C177.88928375 465.8414209 178.20434875 465.0890918 178.52896118 464.31396484 C180.19427028 460.16806664 181.24833122 456.79687324 180.6875 452.25 C178.35828405 449.16721418 176.75309838 447.5517237 173.00854492 446.49145508 C168.92967214 446.19490247 165.54439525 447.06125228 161.67578125 448.19921875 Z M-276.77734375 602.86328125 C-277.42632126 603.14463425 -278.07529877 603.42598724 -278.74394226 603.71586609 C-280.16465626 604.33260797 -281.58395735 604.95261227 -283.00201416 605.57543945 C-286.90766876 607.2903602 -290.82397386 608.98072866 -294.73828125 610.67578125 C-295.57615173 611.03946808 -296.41402222 611.40315491 -297.27728271 611.77786255 C-306.82663729 615.91850864 -316.4139286 619.96879123 -326.00442505 624.01303101 C-328.86666179 625.22012532 -331.7281797 626.42891033 -334.58959961 627.63793945 C-345.47382888 632.23296649 -356.37892194 636.77365604 -367.3125 641.25 C-367.3125 642.24 -367.3125 643.23 -367.3125 644.25 C-365.84347764 645.74328158 -365.84347764 645.74328158 -363.875 647.1875 C-337.35944094 669.54100481 -327.55416178 711.91539864 -321.86376953 744.28808594 C-320.91979642 749.35995565 -319.73740207 754.37983954 -318.47949219 759.38256836 C-316.6306747 767.14933867 -316.68337595 773.72975708 -319.4375 781.25 C-319.81152954 782.27661743 -319.81152954 782.27661743 -320.19311523 783.32397461 C-322.19314075 788.65644409 -324.41568405 793.89267455 -326.65234375 799.12890625 C-326.95442749 799.83663177 -327.25651123 800.5443573 -327.56774902 801.27352905 C-329.09589735 804.84607984 -330.63635284 808.4125579 -332.19775391 811.97070312 C-341.72740806 832.10633133 -341.72740806 832.10633133 -341.01953125 853.44921875 C-340.40487353 854.95231482 -339.77216392 856.4481106 -339.125 857.9375 C-338.60075439 859.19578613 -338.60075439 859.19578613 -338.06591797 860.47949219 C-336.83518152 863.41211047 -335.57639967 866.33152421 -334.3125 869.25 C-333.57314209 870.96533936 -333.57314209 870.96533936 -332.81884766 872.71533203 C-330.64112962 877.76303622 -328.46034311 882.8092406 -326.25561523 887.84521484 C-323.55204799 894.02720991 -320.89487079 900.21906401 -318.359375 906.47265625 C-317.9061084 907.58737305 -317.4528418 908.70208984 -316.98583984 909.85058594 C-316.13813649 911.94768734 -315.29949403 914.04848065 -314.47119141 916.15332031 C-314.09655762 917.07854492 -313.72192383 918.00376953 -313.3359375 918.95703125 C-313.01544434 919.7663208 -312.69495117 920.57561035 -312.36474609 921.40942383 C-311.38614198 923.59581146 -311.38614198 923.59581146 -308.3125 924.25 C-305.6922158 923.33322468 -303.2269138 922.34124019 -300.6953125 921.21875 C-299.91255447 920.88082932 -299.12979645 920.54290863 -298.32331848 920.19474792 C-295.69068468 919.0555477 -293.0642518 917.90269108 -290.4375 916.75 C-288.56101535 915.93506187 -286.68413409 915.12103646 -284.80688477 914.30786133 C-280.762587 912.5539331 -276.72090701 910.79415191 -272.68115234 909.02978516 C-266.27721211 906.23304273 -259.86779194 903.44903576 -253.45703125 900.66796875 C-251.26675764 899.71778883 -249.07649076 898.76759342 -246.88623047 897.81738281 C-245.79324646 897.34320923 -244.70026245 896.86903564 -243.57415771 896.38049316 C-240.24298744 894.9344559 -236.91265653 893.48650101 -233.58251953 892.03808594 C-222.14381704 887.06512196 -210.69432076 882.1191563 -199.22265625 877.22265625 C-197.51927345 876.49516426 -197.51927345 876.49516426 -195.78147888 875.75297546 C-190.34988445 873.4339643 -184.91648171 871.11933859 -179.48022461 868.8112793 C-177.53885102 867.98367547 -175.59752354 867.15596347 -173.65625 866.328125 C-172.77860489 865.95732315 -171.90095978 865.5865213 -170.99671936 865.20448303 C-166.91376099 863.45955044 -163.0494648 861.67845572 -159.3125 859.25 C-160.00075745 854.71058174 -161.65299508 850.6822741 -163.42578125 846.48046875 C-163.7469693 845.70883896 -164.06815735 844.93720917 -164.39907837 844.14219666 C-165.47006924 841.57213955 -166.54754948 839.00485497 -167.625 836.4375 C-168.38853573 834.60874214 -169.15162847 832.77979926 -169.91430664 830.95068359 C-171.53787071 827.0587544 -173.16400715 823.16791395 -174.79199219 819.27783203 C-177.28792815 813.31196284 -179.77401348 807.34202438 -182.2578125 801.37109375 C-190.61974557 781.27332703 -199.00803662 761.18668848 -207.41873169 741.10928345 C-213.35689494 726.93335891 -219.27763687 712.7502454 -225.1875 698.5625 C-225.80708084 697.07517365 -225.80708084 697.07517365 -226.43917847 695.55780029 C-230.72862489 685.26041041 -235.01621819 674.96225008 -239.30224609 664.66343689 C-252.71719568 632.41883684 -252.71719568 632.41883684 -266.3125 600.25 C-270.67668294 600.25 -272.8106208 601.12630608 -276.77734375 602.86328125 Z M-59.3359375 933.265625 C-60.05178513 933.58813736 -60.76763275 933.91064972 -61.50517273 934.24293518 C-63.07169979 934.94944457 -64.63707494 935.65851216 -66.20144653 936.36978149 C-69.61277307 937.92065095 -73.02964654 939.45912433 -76.44612122 940.99861145 C-78.26573959 941.81875317 -80.085059 942.63955846 -81.90409851 943.46098328 C-91.11035494 947.61711137 -100.33932033 951.72149996 -109.57199097 955.81854248 C-112.40190818 957.07444168 -115.23140967 958.33127299 -118.06079102 959.58837891 C-126.67622012 963.41607111 -135.29268232 967.24143108 -143.9099884 971.06489563 C-148.64862948 973.16757946 -153.38690263 975.27109131 -158.125 977.375 C-159.05921783 977.78978607 -159.99343567 978.20457214 -160.95596313 978.63192749 C-174.99250462 984.86582067 -189.00248834 991.15677642 -203.00091553 997.47570801 C-220.29956359 1005.28042669 -237.67144531 1012.91630308 -255.06278992 1020.51190186 C-260.15525887 1022.7373143 -265.23624191 1024.98786281 -270.3125 1027.25 C-269.85359375 1028.17039062 -269.3946875 1029.09078125 -268.921875 1030.0390625 C-261.42035728 1045.34657251 -258.69635562 1057.31162243 -259.72290039 1074.47729492 C-260.15253751 1080.77583031 -260.15253751 1080.77583031 -257.81103516 1086.390625 C-251.85557501 1091.57330982 -246.98008503 1091.52215938 -239.3125 1091.25 C-235.9013446 1090.97299858 -232.52270048 1090.54508097 -229.1328125 1090.078125 C-228.19936005 1089.95443542 -227.26590759 1089.83074585 -226.3041687 1089.70330811 C-224.33902801 1089.4411201 -222.37435696 1089.17538949 -220.41015625 1088.90625 C-217.48038106 1088.50586022 -214.54903811 1088.1192359 -211.6171875 1087.734375 C-201.99571058 1086.45085709 -192.41884113 1085.00188945 -182.875 1083.2265625 C-182.03083527 1083.07253967 -181.18667053 1082.91851685 -180.31692505 1082.75982666 C-172.52294115 1081.25785541 -165.49844579 1078.65026279 -158.3125 1075.25 C-156.89130859 1074.59064453 -156.89130859 1074.59064453 -155.44140625 1073.91796875 C-121.77963679 1056.96494408 -98.58666904 1018.05020803 -82.8125 985.3125 C-75.92055208 971.03386271 -67.98378424 961.53379061 -52.9375 955.76953125 C-50.18623474 954.52874008 -50.18623474 954.52874008 -49.44140625 952.1875 C-49.25471382 947.93317552 -49.20872181 943.69550386 -49.25 939.4375 C-49.25676758 938.11202148 -49.25676758 938.11202148 -49.26367188 936.75976562 C-49.27540134 934.58981441 -49.29333505 932.41989828 -49.3125 930.25 C-53.14472894 930.25 -55.92112005 931.70065477 -59.3359375 933.265625 Z " fill="#25AAE1" transform="translate(972.3125,65.75)"/>
<path d="M0 0 C12.72758441 11.19418129 24.40533044 23.07439048 34.4375 36.75 C35.05625 37.57371094 35.675 38.39742187 36.3125 39.24609375 C65.48293574 79.28791874 69.4375 120.91300958 69.4375 169.75 C-44.7425 169.75 -158.9225 169.75 -276.5625 169.75 C-265.14020804 217.34288318 -246.58286222 254.61038729 -204.0859375 280.66015625 C-181.69620341 294.05278861 -157.04570157 302.87555352 -130.66601562 302.90821838 C-129.80571778 302.91315636 -128.94541994 302.91809434 -128.05905247 302.92318195 C-125.19562013 302.93845821 -122.33221004 302.94689061 -119.46875 302.95532227 C-117.4084809 302.96490856 -115.34821375 302.97491908 -113.28794861 302.98532104 C-107.70803421 303.01229472 -102.12811142 303.03334499 -96.54816818 303.05332303 C-90.71186555 303.0752292 -84.87558856 303.10259519 -79.03930664 303.12937927 C-67.99334691 303.17924363 -56.9473729 303.22420563 -45.90138531 303.26740164 C-33.32342939 303.31682755 -20.74549921 303.37172579 -8.16756821 303.42708123 C17.700765 303.5408052 43.56912194 303.64694269 69.4375 303.75 C69.4375 316.62 69.4375 329.49 69.4375 342.75 C42.26243831 342.8406335 15.08750084 342.91417481 -12.08767414 342.95724869 C-24.70832582 342.97778885 -37.32887625 343.0057441 -49.94946289 343.05175781 C-60.96201741 343.09188928 -71.97449852 343.11749473 -82.98712415 343.12635398 C-88.80692628 343.13152461 -94.6265186 343.14349465 -100.44625282 343.17292023 C-164.5449752 343.48416925 -216.84383949 330.85525502 -263.8125 284.8125 C-269.99479882 278.59831245 -275.36583275 271.79649741 -280.5625 264.75 C-281.73619141 263.15865234 -281.73619141 263.15865234 -282.93359375 261.53515625 C-313.20757579 219.08861991 -323.49615046 166.08133961 -315.08984375 114.87060547 C-311.51539565 94.53927706 -305.41464911 75.88311206 -295.5625 57.75 C-295.24168457 57.14462402 -294.92086914 56.53924805 -294.59033203 55.91552734 C-289.74950887 46.80179882 -284.0721998 38.71575289 -277.5625 30.75 C-277.14129883 30.22583496 -276.72009766 29.70166992 -276.28613281 29.16162109 C-256.63759769 4.76231334 -232.26710043 -15.40380536 -203.5625 -28.25 C-202.3765625 -28.78109375 -201.190625 -29.3121875 -199.96875 -29.859375 C-133.95151959 -57.70142435 -54.44098582 -46.69030863 0 0 Z M-158.5625 -1.25 C-159.34657227 -1.05132324 -160.13064453 -0.85264648 -160.93847656 -0.64794922 C-203.00918779 10.29174683 -235.93244409 35.95676741 -257.9921875 73.25 C-267.58026192 89.83098605 -276.5625 110.32259513 -276.5625 129.75 C-175.9125 129.75 -75.2625 129.75 28.4375 129.75 C25.51822158 100.55721579 13.68253298 72.05494035 -5.5625 49.75 C-6.08328125 49.14559082 -6.6040625 48.54118164 -7.140625 47.91845703 C-15.15018171 38.7462982 -23.63254951 30.79769846 -33.5625 23.75 C-34.63628906 22.98300781 -35.71007813 22.21601562 -36.81640625 21.42578125 C-52.62764837 10.72939195 -70.05365803 3.28111361 -88.5625 -1.25 C-89.24683105 -1.42644043 -89.93116211 -1.60288086 -90.63623047 -1.78466797 C-111.40377123 -6.93951388 -137.88727774 -6.63407168 -158.5625 -1.25 Z " fill="#666769" transform="translate(2157.5625,494.25)"/>
<path d="M0 0 C12.87 0 25.74 0 39 0 C39.33 66.33 39.66 132.66 40 201 C46.93 195.72 53.86 190.44 61 185 C110.44376917 148.07364075 161.72732414 127.97684076 224.57617188 136.59204102 C274.48899472 144.18105118 319.4382335 172.20349008 349.58984375 212.6875 C350.39446799 213.79076424 351.19788613 214.89490929 352 216 C352.76441406 217.03125 353.52882813 218.0625 354.31640625 219.125 C377.76178205 251.74465329 387.56758263 289.21451461 387.34057617 329.00683594 C387.33972739 331.12798551 387.34020993 333.24913597 387.34190369 335.37028503 C387.34275527 341.0611476 387.325267 346.75181576 387.30418181 352.44263363 C387.28527354 358.41497213 387.28365353 364.38731636 387.28010559 370.35968018 C387.27082633 381.63904212 387.24626898 392.91831556 387.21605712 404.19763875 C387.182384 417.05153353 387.16599481 429.9054328 387.15097082 442.75936079 C387.11971522 469.17296737 387.06475536 495.58645284 387 522 C374.13 522 361.26 522 348 522 C347.97812622 512.85772705 347.97812622 512.85772705 347.95581055 503.53076172 C347.90535517 483.33839906 347.83888837 463.14611218 347.76428509 442.953825 C347.71946382 430.71759787 347.6800182 418.48139895 347.65356445 406.24511719 C347.63047308 395.57059164 347.59695237 384.89615643 347.55129844 374.22170269 C347.5275154 368.57819701 347.50868948 362.93477996 347.50238609 357.29122543 C347.49626695 351.96093501 347.47602614 346.63087093 347.44572449 341.3006649 C347.43705219 339.36195266 347.43319871 337.42321071 347.43499184 335.4844799 C347.46219947 292.42842039 334.98254153 254.63252416 305 223 C304.54173828 222.50387207 304.08347656 222.00774414 303.61132812 221.49658203 C284.99389703 201.41423355 260.80806653 187.37961385 234.4375 180.25 C233.70684326 180.05116211 232.97618652 179.85232422 232.22338867 179.64746094 C219.67552812 176.44000606 207.19249525 175.62186189 194.3125 175.6875 C193.56743195 175.68932281 192.82236389 175.69114563 192.05471802 175.69302368 C180.49083604 175.7405607 169.27516867 176.26205273 158 179 C157.29746094 179.16628906 156.59492188 179.33257812 155.87109375 179.50390625 C122.76252169 187.61580685 92.58336102 207.91663024 72 235 C71.25234375 235.94359375 70.5046875 236.8871875 69.734375 237.859375 C57.33931139 253.79588536 49.1659184 271.61189168 44.125 291.125 C43.93397705 291.85025879 43.7429541 292.57551758 43.54614258 293.32275391 C39.90884649 308.50867128 39.6979732 324.15400038 39.68115234 339.67822266 C39.67182782 341.68085625 39.66165552 343.68348605 39.65071106 345.68611145 C39.62368115 351.06296523 39.60834289 356.43979323 39.59528303 361.81669664 C39.57953277 367.45809886 39.55278123 373.0994493 39.5272522 378.74081421 C39.48067321 389.39685965 39.44382879 400.05291506 39.41057932 410.70900953 C39.3722094 422.85191256 39.32283875 434.99476332 39.27259517 447.13762212 C39.16958627 472.09171409 39.08167762 497.04582846 39 522 C26.13 522 13.26 522 0 522 C0 349.74 0 177.48 0 0 Z " fill="#666769" transform="translate(3163,315)"/>
<path d="M0 0 C5.34406469 4.68373485 10.5620895 9.49405321 15.71875 14.3828125 C16.47285156 15.094375 17.22695312 15.8059375 18.00390625 16.5390625 C23.39186388 21.76634545 28.10413416 27.46893589 32.71875 33.3828125 C33.1509082 33.93324219 33.58306641 34.48367188 34.02832031 35.05078125 C57.46873238 65.13292508 71.97895971 103.13944345 71.83900452 141.51344299 C71.84028615 142.82354738 71.84028615 142.82354738 71.84159368 144.16011852 C71.84322967 147.06192662 71.83775817 149.96367582 71.83227539 152.86547852 C71.83199309 154.95544941 71.8321521 157.0454204 71.8327179 159.13539124 C71.83300418 164.79171142 71.8271347 170.44801029 71.82014394 176.10432553 C71.81388232 182.02201812 71.81330438 187.93971123 71.81211853 193.85740662 C71.80901349 205.05564045 71.80081126 216.25386449 71.79076904 227.45209402 C71.77958221 240.20417488 71.77409098 252.95625622 71.76907361 265.70834076 C71.75862795 291.9331701 71.74104454 318.15799075 71.71875 344.3828125 C44.45735796 344.45311675 17.19597966 344.50590511 -10.065485 344.53824902 C-22.72549101 344.5536708 -35.38544047 344.57466994 -48.04541016 344.60913086 C-59.08904606 344.63917754 -70.13264097 344.65842151 -81.17631662 344.66507798 C-87.01548046 344.66896454 -92.8545271 344.67799902 -98.69365311 344.70000267 C-104.20773668 344.72060994 -109.72165656 344.72659819 -115.23577499 344.72213554 C-117.24223983 344.72295005 -119.24871108 344.72876945 -121.25514221 344.74042892 C-147.82101426 344.887021 -173.73177686 340.78317185 -198.28125 330.3828125 C-198.95188477 330.10099121 -199.62251953 329.81916992 -200.31347656 329.52880859 C-217.71665547 322.09200892 -233.24616173 312.03873025 -247.28125 299.3828125 C-248.59320991 298.27800416 -249.90564621 297.17376106 -251.21875 296.0703125 C-288.87250921 262.6090937 -311.91283319 216.76418649 -315.28125 166.3828125 C-317.69888228 113.21592527 -304.22583802 63.16263192 -267.95849609 23.18896484 C-257.53010464 11.95909003 -246.78854348 1.28209627 -234.28125 -7.6171875 C-233.69311523 -8.0390332 -233.10498047 -8.46087891 -232.49902344 -8.89550781 C-163.76764259 -57.70474928 -64.58540833 -54.27508712 0 0 Z M-161.28125 1.3828125 C-162.14282715 1.61355469 -163.0044043 1.84429687 -163.89208984 2.08203125 C-190.1792059 9.40310686 -211.79537207 23.63169618 -231.28125 42.3828125 C-232.30025391 43.30707031 -232.30025391 43.30707031 -233.33984375 44.25 C-255.1757636 64.67861525 -268.40314463 93.48893838 -274.28125 122.3828125 C-274.52746094 123.57390625 -274.77367188 124.765 -275.02734375 125.9921875 C-281.54074667 164.98276501 -272.4379196 205.31404027 -250.01953125 237.64453125 C-245.16312186 244.26382573 -239.93010503 250.43072138 -234.28125 256.3828125 C-233.55325195 257.16760986 -233.55325195 257.16760986 -232.81054688 257.96826172 C-213.41426239 278.78862285 -189.19757766 293.70356633 -161.71875 301.1328125 C-160.98809326 301.33165039 -160.25743652 301.53048828 -159.50463867 301.73535156 C-146.68723905 305.01170538 -134.13219651 305.67239918 -120.99462891 305.60986328 C-119.30785631 305.6092977 -117.62108322 305.60961859 -115.93431091 305.61074829 C-111.40011635 305.61131708 -106.86602976 305.59964039 -102.33186007 305.58560038 C-97.57666365 305.57301317 -92.82146417 305.57191627 -88.06625366 305.56954956 C-79.08166539 305.5633581 -70.09712636 305.5469792 -61.11255968 305.52685058 C-50.87543551 305.50441851 -40.63830887 305.49347985 -30.4011662 305.48345971 C-9.36116675 305.46261066 11.67878851 305.42748055 32.71875 305.3828125 C32.76566563 284.73644492 32.80083404 264.09008624 32.82237434 243.44367599 C32.83264588 233.85517332 32.84662643 224.26670394 32.86962891 214.67822266 C32.88969002 206.31177758 32.90249631 197.94535664 32.90692699 189.57888818 C32.90951304 185.15721408 32.91550319 180.73560899 32.93021011 176.31395721 C33.36675447 144.86313423 33.36675447 144.86313423 28.59375 113.8828125 C28.38274658 113.0280835 28.17174316 112.17335449 27.9543457 111.29272461 C21.21155077 85.36017772 7.65582809 62.95375579 -10.89550781 43.81542969 C-12.13875618 42.5301264 -13.36360104 41.22708173 -14.5859375 39.921875 C-33.79366471 19.86985209 -59.58268331 7.024247 -86.28125 0.3828125 C-86.96316406 0.20492187 -87.64507813 0.02703125 -88.34765625 -0.15625 C-110.95633879 -5.81965756 -138.91074171 -4.6701266 -161.28125 1.3828125 Z " fill="#666769" transform="translate(3002.28125,492.6171875)"/>
<path d="M0 0 C0.60537598 0.49113281 1.21075195 0.98226562 1.83447266 1.48828125 C14.44729777 11.804463 26.07388317 23.04762804 36 36 C36.64533691 36.83072021 36.64533691 36.83072021 37.30371094 37.67822266 C44.49178392 46.9706818 50.59467713 56.57207839 56 67 C56.31420898 67.5971582 56.62841797 68.19431641 56.95214844 68.80957031 C68.85398155 91.71139006 75.21465863 118.46083791 75.12025452 144.25088501 C75.12153615 145.56227103 75.12153615 145.56227103 75.12284368 146.9001497 C75.12447699 149.79885183 75.11901267 152.69749471 75.11352539 155.59619141 C75.11324303 157.6863098 75.11340221 159.77642829 75.1139679 161.86654663 C75.11425395 167.51867552 75.10838817 173.17078304 75.10139394 178.82290697 C75.09512852 184.73792442 75.09455408 190.65294239 75.09336853 196.56796265 C75.09026461 207.75907999 75.08206388 218.95018753 75.07201904 230.14130056 C75.06082874 242.88614961 75.0553401 255.63099913 75.05032361 268.37585187 C75.03988047 294.58390793 75.02154667 320.79195055 75 347 C62.13 347 49.26 347 36 347 C35.98018066 341.01061279 35.96036133 335.02122559 35.93994141 328.8503418 C35.8729175 309.02118871 35.79537692 289.19208694 35.71247292 269.36299419 C35.66248267 257.34528038 35.61603888 245.32757293 35.578125 233.30981445 C35.54504632 222.82760864 35.50512905 212.34545424 35.45720994 201.86330539 C35.43210179 196.31995669 35.41027541 190.77664139 35.39665604 185.23325157 C35.38369181 180.00068644 35.36148757 174.76823685 35.33261681 169.53573608 C35.32365188 167.62962416 35.31787725 165.72349369 35.31578636 163.81736183 C35.29535151 147.99798041 34.72885 131.98277419 30.875 116.5625 C30.55740723 115.27146362 30.55740723 115.27146362 30.23339844 113.9543457 C23.51263881 88.00474604 10.30343893 66.34484149 -8 47 C-8.76828125 46.17886719 -9.5365625 45.35773438 -10.328125 44.51171875 C-30.02262623 24.08661505 -55.62911311 10.79599923 -83 4 C-83.68723145 3.82210937 -84.37446289 3.64421875 -85.08251953 3.4609375 C-106.25251722 -1.79118105 -132.89755218 -1.19495961 -154 4 C-154.78375 4.18804199 -155.5675 4.37608398 -156.375 4.56982422 C-174.4813829 9.07135177 -192.04683872 16.75650507 -207 28 C-207.83144531 28.62261719 -208.66289063 29.24523437 -209.51953125 29.88671875 C-237.60501699 51.69167067 -258.95014045 80.4085389 -267.8125 115.125 C-268.0074707 115.8871582 -268.20244141 116.64931641 -268.40332031 117.43457031 C-271.83261843 131.82310687 -272.30331894 145.99409184 -272.31884766 160.70483398 C-272.32816559 162.7464334 -272.33833697 164.78802906 -272.34928894 166.82962036 C-272.37639288 172.32648277 -272.39167966 177.82331985 -272.40471697 183.3202312 C-272.42043407 189.08176727 -272.44719657 194.84325224 -272.4727478 200.60475159 C-272.51938458 211.49464263 -272.55620142 222.38454345 -272.58942068 233.27448279 C-272.62774926 245.68091414 -272.67713103 258.08729398 -272.72740483 270.49368179 C-272.8304999 295.99575441 -272.918374 321.497849 -273 347 C-285.87 347 -298.74 347 -312 347 C-312.06794099 320.29466297 -312.12311156 293.58939683 -312.15543652 266.88399506 C-312.17085009 254.4818765 -312.19183319 242.07981578 -312.22631836 229.67773438 C-312.25639054 218.857482 -312.27561494 208.03727156 -312.28226548 197.21697855 C-312.2861478 191.49735727 -312.29515438 185.77785586 -312.31719017 180.05827332 C-312.44695938 144.97671477 -312.06528246 110.8054185 -298 78 C-297.70754395 77.31486328 -297.41508789 76.62972656 -297.11376953 75.92382812 C-287.72628248 54.27645194 -274.26191259 35.9651599 -258 19 C-257.49742676 18.47019531 -256.99485352 17.94039063 -256.47705078 17.39453125 C-195.15946536 -46.96122683 -91.40852294 -59.31546059 0 0 Z " fill="#666769" transform="translate(1700,490)"/>
<path d="M0 0 C6.10111915 -0.27334421 12.19862959 -0.47214996 18.30444336 -0.60424805 C20.37766633 -0.65933797 22.45046629 -0.73423996 24.5222168 -0.82983398 C41.68999111 -1.60174401 41.68999111 -1.60174401 47.21850586 2.23168945 C49.52934525 5.03951991 51.27414683 7.80562227 53 11 C53.97900465 12.33246147 54.98026967 13.64911508 56.01171875 14.94140625 C56.90570848 16.1469106 57.79761893 17.35395954 58.6875 18.5625 C63.11253187 24.51841229 67.61921586 30.40328502 72.1875 36.25 C76.68211219 42.00590782 81.1244547 47.79235973 85.48828125 53.6484375 C88.81508203 58.10181084 92.19185194 62.5172872 95.5625 66.9375 C96.24940918 67.83831299 96.93631836 68.73912598 97.64404297 69.66723633 C99.05831834 71.5215703 100.47270758 73.37581742 101.88720703 75.22998047 C105.25997761 79.65191887 108.62989132 84.07603276 112 88.5 C113.33331861 90.25001122 114.66665197 92.0000112 116 93.75 C124 104.25000001 124 104.25000001 126.00073242 106.87597656 C127.33160473 108.6227363 128.6624966 110.36948114 129.9934082 112.11621094 C133.36455736 116.54066371 136.73534662 120.96538987 140.10546875 125.390625 C146.48256025 133.76378564 152.86146613 142.13556493 159.25 150.5 C159.77489014 151.18803711 160.29978027 151.87607422 160.84057617 152.58496094 C163.51985885 156.09049869 166.22739758 159.56725414 169 163 C174.51479653 156.50771308 179.66544488 149.81353047 184.6875 142.9375 C189.40243836 136.48258575 194.19619656 130.10575131 199.125 123.8125 C203.92972355 117.67677849 208.66124779 111.4958382 213.32080078 105.24926758 C217.51027137 99.63780327 221.7503401 94.0659838 226 88.5 C230.69248133 82.3523532 235.36984066 76.19473523 240 70 C244.56785668 63.88870585 249.18239254 57.81425072 253.8125 51.75 C259.76324079 43.95565743 265.66548025 36.12683326 271.53930664 28.27441406 C277.20611472 20.7065856 282.94283054 13.19334316 288.70410156 5.69726562 C290.05903181 3.97684045 290.05903181 3.97684045 291.30152893 1.92230225 C293 0 293 0 295.06913757 -0.48101807 C296.25827507 -0.4676944 296.25827507 -0.4676944 297.47143555 -0.45410156 C298.37214279 -0.45379944 299.27285004 -0.45349731 300.20085144 -0.45318604 C301.16968765 -0.43254089 302.13852386 -0.41189575 303.13671875 -0.390625 C304.62858452 -0.38213531 304.62858452 -0.38213531 306.15058899 -0.37347412 C309.33004711 -0.3510672 312.508382 -0.30086205 315.6875 -0.25 C317.84178061 -0.22994062 319.99607887 -0.21168887 322.15039062 -0.1953125 C327.43397758 -0.15118852 332.71690855 -0.08423379 338 0 C336.08834331 4.01295754 333.55825882 7.41337002 330.875 10.9375 C330.35147949 11.63061279 329.82795898 12.32372559 329.28857422 13.0378418 C326.25158836 17.0528625 323.19646576 21.05400887 320.140625 25.0546875 C318.80206732 26.80727944 317.4635259 28.55988379 316.125 30.3125 C315.10792969 31.6432959 315.10792969 31.6432959 314.0703125 33.00097656 C309.60876656 38.85145435 305.21940292 44.74965887 300.875 50.6875 C295.79045074 57.6354251 290.56492807 64.45485361 285.25170898 71.22900391 C281.04970437 76.60432983 276.96809946 82.05769957 272.9375 87.5625 C266.97896338 95.70038501 260.89346326 103.73038475 254.74658203 111.7265625 C245.76542295 123.41688307 236.85505258 135.14977294 228.14868164 147.04638672 C224.1891131 152.43715849 220.12712582 157.73667771 216 163 C210.99171469 169.391911 206.07897217 175.84638959 201.25 182.375 C200.65316406 183.17808594 200.05632813 183.98117187 199.44140625 184.80859375 C198.61189453 185.93587891 198.61189453 185.93587891 197.765625 187.0859375 C197.27868164 187.7464209 196.79173828 188.4069043 196.29003906 189.08740234 C195.00340396 190.99495333 193.9798125 192.92064584 193 195 C193.40089844 195.5261792 193.80179688 196.0523584 194.21484375 196.59448242 C195.06755859 197.71367065 195.06755859 197.71367065 195.9375 198.85546875 C196.57695557 199.694729 197.21641113 200.53398926 197.87524414 201.39868164 C199.31202807 203.28451213 200.74871155 205.17041916 202.18530273 207.05639648 C205.82046566 211.82841131 209.45688597 216.599449 213.09765625 221.3671875 C219.64553526 229.94550383 226.1658957 238.5420954 232.625 247.1875 C237.98310584 254.35759686 243.43314683 261.44813852 248.94628906 268.49951172 C253.13996829 273.87125725 257.25284699 279.29749287 261.32763672 284.75976562 C265.45247968 290.28480946 269.62741416 295.77048536 273.8125 301.25 C279.12118744 308.20137085 284.39102025 315.17972956 289.625 322.1875 C294.98237623 329.35686804 300.43251925 336.44602533 305.9440918 343.49731445 C311.16745861 350.18945334 316.26524803 356.96979196 321.33740234 363.77685547 C323.24462924 366.32710629 325.16283415 368.86890222 327.08203125 371.41015625 C327.77369385 372.32748535 328.46535645 373.24481445 329.17797852 374.18994141 C330.54263104 375.99950892 331.90896338 377.80781103 333.27709961 379.61474609 C333.89206299 380.43152832 334.50702637 381.24831055 335.140625 382.08984375 C335.69266602 382.82066162 336.24470703 383.55147949 336.81347656 384.30444336 C338 386 338 386 338 387 C295.35099303 390.51499051 295.35099303 390.51499051 286.38183594 385.24511719 C281.12357427 380.75721128 278.20922863 375.09514045 275.38964844 368.86865234 C273.17709223 364.30127085 270.10489524 360.48915786 267 356.5 C265.8499866 354.940574 264.70417309 353.37804234 263.5625 351.8125 C259.76786641 346.66264013 255.88791433 341.57961221 252 336.5 C246.34646605 329.11358208 240.78529806 321.66805534 235.2890625 314.1640625 C230.92722968 308.22328567 226.47945452 302.3524674 222 296.5 C216.34646605 289.11358208 210.78529806 281.66805534 205.2890625 274.1640625 C200.27679201 267.33739546 195.14371494 260.60697555 189.99609375 253.88208008 C183.21481397 245.00653276 176.59100644 236.0173831 170 227 C165.84475388 228.38508204 164.28064764 231.3246567 161.8125 234.75 C160.73413581 236.21822917 159.65465093 237.68563569 158.57421875 239.15234375 C157.99720215 239.93851074 157.42018555 240.72467773 156.82568359 241.53466797 C153.64288945 245.83258924 150.37828645 250.06785528 147.125 254.3125 C141.95422136 261.07731506 136.84638041 267.88273181 131.8125 274.75 C125.89335385 282.82315004 119.84745871 290.79022982 113.74658203 298.7265625 C104.74446107 310.44416808 95.81137668 322.2045583 87.07397461 334.12109375 C81.74071772 341.38262722 76.2729977 348.53586964 70.78173828 355.67822266 C67.36441851 360.1313209 63.96422812 364.59748753 60.5625 369.0625 C59.56887451 370.36550049 59.56887451 370.36550049 58.55517578 371.69482422 C57.91950684 372.52900879 57.28383789 373.36319336 56.62890625 374.22265625 C56.07275635 374.95234619 55.51660645 375.68203613 54.94360352 376.43383789 C53.02941162 378.84923998 53.02941162 378.84923998 51.82049561 381.0508728 C48.37249526 386.59267002 48.37249526 386.59267002 44.65339661 387.69642639 C41.78045931 387.92610582 39.01245211 387.90049696 36.1328125 387.78125 C35.09808807 387.76993042 34.06336365 387.75861084 32.99728394 387.74694824 C29.70460887 387.70229758 26.41634987 387.60195298 23.125 387.5 C20.88808389 387.45985852 18.65109927 387.42335893 16.4140625 387.390625 C10.94121127 387.30260124 5.47092107 387.168881 0 387 C0.93895812 385.57953763 1.8795464 384.16015276 2.82080078 382.74121094 C3.6062175 381.55540436 3.6062175 381.55540436 4.40750122 380.34564209 C6.76374637 376.87505368 9.30346293 373.56249534 11.875 370.25 C13.02107519 368.76190499 14.16689679 367.27361465 15.3125 365.78515625 C15.91191406 365.0080127 16.51132813 364.23086914 17.12890625 363.43017578 C20.39125676 359.1930363 23.63354377 354.94063344 26.875 350.6875 C27.88288574 349.36576782 27.88288574 349.36576782 28.91113281 348.01733398 C33.51437673 341.97268693 38.07759022 335.89921539 42.625 329.8125 C47.98310102 322.64239939 53.43314686 315.55186145 58.94628906 308.50048828 C63.13996829 303.12874275 67.25284699 297.70250713 71.32763672 292.24023438 C75.45247968 286.71519054 79.62741416 281.22951464 83.8125 275.75 C89.12118744 268.79862915 94.39102025 261.82027044 99.625 254.8125 C104.98017999 247.64607102 110.42763929 240.55945352 115.9375 233.51147461 C121.21122535 226.75563512 126.35882046 219.91029528 131.47949219 213.03808594 C134.22872093 209.35302467 136.99026198 205.67719323 139.75 202 C140.76567477 200.64587066 141.78130462 199.29170763 142.796875 197.9375 C143.88742188 196.4834375 143.88742188 196.4834375 145 195 C142.03634836 189.48371409 138.58654148 184.70183479 134.6875 179.8125 C129.58240357 173.33140481 124.55876724 166.80000079 119.625 160.1875 C114.39158197 153.17931224 109.12106675 146.20145374 103.8125 139.25 C98.69992621 132.55403167 93.61546806 125.83897462 88.57299805 119.09008789 C84.46056713 113.59420294 80.29411661 108.14045083 76.125 102.6875 C70.97175903 95.94549588 65.88571521 89.16104315 60.875 82.3125 C55.78985022 75.36375431 50.56425831 68.54306231 45.24951172 61.76879883 C41.06528549 56.41735683 37.00817948 50.98425897 33 45.5 C28.38860799 39.19174472 23.69085144 32.96616175 18.875 26.8125 C14.25428969 20.90298476 9.65451346 14.97985362 5.125 9 C4.60663574 8.32300049 4.08827148 7.64600098 3.55419922 6.94848633 C0 2.23254868 0 2.23254868 0 0 Z " fill="#666769" transform="translate(2303,450)"/>
</svg>
